<svg xmlns="http://www.w3.org/2000/svg" width="600" height="1200" viewBox="0 0 600 1200">
  <defs>
    <style>
      .cls-1 {
        fill: #fff;
        fill-rule: evenodd;
      }
    </style>
  </defs>
  <g id="International_Engage_Banner_300x600_Frame_2" data-name="International Engage Banner 300x600 Frame 2">
    <path id="We_make_it_simple_and_easy_for_everyone_to_open_a_bank_account_copy_3" data-name="We make it simple and easy for everyone to open a bank account  copy 3" class="cls-1" d="M799.224,1994h-3.312l-5.688,23-7.236-23h-4.1l-7.056,23.04L766.1,1994H762.54l6.948,26.03h4.392l6.984-22.79,7.164,22.79h4.284Zm16.668,17.53a19.39,19.39,0,0,0-.36-3.78,8.835,8.835,0,0,0-1.26-3.18,6.731,6.731,0,0,0-2.412-2.19,7.82,7.82,0,0,0-3.78-.82,9.1,9.1,0,0,0-3.852.75,7.563,7.563,0,0,0-2.682,2.07,8.777,8.777,0,0,0-1.584,3.07,13.412,13.412,0,0,0-.522,3.81,12.457,12.457,0,0,0,.522,3.7,8.027,8.027,0,0,0,1.566,2.91,6.857,6.857,0,0,0,2.61,1.89,9.456,9.456,0,0,0,3.69.66,8.859,8.859,0,0,0,5.256-1.53,6.88,6.88,0,0,0,2.7-4.73H812.76a4.87,4.87,0,0,1-1.512,3.04,4.575,4.575,0,0,1-3.168,1.1,5.187,5.187,0,0,1-2.394-.52,4.936,4.936,0,0,1-1.71-1.42,6.359,6.359,0,0,1-1.026-2.06,8.377,8.377,0,0,1-.342-2.41v-0.36h13.284Zm-13.212-2.12a8.715,8.715,0,0,1,.486-2.15,6.467,6.467,0,0,1,1.026-1.84,4.643,4.643,0,0,1,1.584-1.27,4.88,4.88,0,0,1,2.2-.47,4.561,4.561,0,0,1,2.142.49,4.392,4.392,0,0,1,1.512,1.27,5.1,5.1,0,0,1,.864,1.82,8.5,8.5,0,0,1,.27,2.15H802.68Zm53.352,10.62v-10.66a16.579,16.579,0,0,0-.27-3.08,6.38,6.38,0,0,0-.972-2.44,4.738,4.738,0,0,0-1.926-1.62,7.119,7.119,0,0,0-3.132-.6,6.543,6.543,0,0,0-6.3,3.75,5.777,5.777,0,0,0-2.232-2.88,6.664,6.664,0,0,0-3.564-.87,6.3,6.3,0,0,0-5.76,3.24l-0.108-3.02h-3.132c0.072,2.09.108,4.16,0.108,6.23v11.95h3.168v-10.08a9.017,9.017,0,0,1,.27-2.2,5.547,5.547,0,0,1,.846-1.89,4.377,4.377,0,0,1,1.476-1.31,4.314,4.314,0,0,1,2.16-.51,4.438,4.438,0,0,1,2.106.44,3.1,3.1,0,0,1,1.26,1.17,4.708,4.708,0,0,1,.612,1.72,13.13,13.13,0,0,1,.162,2.11v10.55h3.168v-10.08a10.9,10.9,0,0,1,.234-2.31,5.27,5.27,0,0,1,.774-1.87,3.831,3.831,0,0,1,1.44-1.26,4.914,4.914,0,0,1,2.268-.47,4.483,4.483,0,0,1,2.07.42,3.314,3.314,0,0,1,1.278,1.11,4.437,4.437,0,0,1,.648,1.66,11.237,11.237,0,0,1,.18,2.07v10.73h3.168Zm19.008,0a15.994,15.994,0,0,1-.378-2.07,24.368,24.368,0,0,1-.2-3.26V2008q0-3.555-1.71-5.04a7.824,7.824,0,0,0-5.2-1.47,11.177,11.177,0,0,0-2.484.27,6.414,6.414,0,0,0-2.124.88,4.871,4.871,0,0,0-1.53,1.62,5.336,5.336,0,0,0-.666,2.48h3.1a3.355,3.355,0,0,1,1.134-2.5,4.374,4.374,0,0,1,2.646-.7,3.692,3.692,0,0,1,3.114,1.15,5.236,5.236,0,0,1,.882,3.24v1.08c-0.264-.02-0.546-0.04-0.846-0.05s-0.618-.02-0.954-0.02q-1.656,0-3.492.18a11.826,11.826,0,0,0-3.366.81,6.4,6.4,0,0,0-2.538,1.84,4.905,4.905,0,0,0-1.008,3.25,5.231,5.231,0,0,0,.522,2.42,4.845,4.845,0,0,0,1.4,1.67,6.216,6.216,0,0,0,2.034.99,8.713,8.713,0,0,0,2.412.32,8.837,8.837,0,0,0,3.492-.64,6.353,6.353,0,0,0,2.664-2.31c0.024,0.39.066,0.81,0.126,1.28s0.126,0.89.2,1.28h2.772Zm-3.564-6.41a6.975,6.975,0,0,1-.666,2.38,4.178,4.178,0,0,1-1.512,1.67,5.842,5.842,0,0,1-4.23.41,3.955,3.955,0,0,1-1.278-.64,3.135,3.135,0,0,1-.882-1.08,3.3,3.3,0,0,1-.324-1.48,3.058,3.058,0,0,1,.756-2.2,4.888,4.888,0,0,1,1.89-1.2,9.07,9.07,0,0,1,2.43-.52c0.864-.08,1.644-0.11,2.34-0.11h0.72a7.235,7.235,0,0,1,.9.07A25.159,25.159,0,0,1,871.476,2013.62Zm24.156,6.41-9.18-10.37,8.46-7.85H890.88l-8.172,7.96,8.856,10.26h4.068Zm-13.032,0V1994h-3.168v26.03H882.6Zm29.52-8.5a19.39,19.39,0,0,0-.36-3.78,8.835,8.835,0,0,0-1.26-3.18,6.731,6.731,0,0,0-2.412-2.19,7.82,7.82,0,0,0-3.78-.82,9.1,9.1,0,0,0-3.852.75,7.563,7.563,0,0,0-2.682,2.07,8.777,8.777,0,0,0-1.584,3.07,13.412,13.412,0,0,0-.522,3.81,12.457,12.457,0,0,0,.522,3.7,8.027,8.027,0,0,0,1.566,2.91,6.857,6.857,0,0,0,2.61,1.89,9.456,9.456,0,0,0,3.69.66,8.859,8.859,0,0,0,5.256-1.53,6.88,6.88,0,0,0,2.7-4.73h-3.024a4.87,4.87,0,0,1-1.512,3.04,4.575,4.575,0,0,1-3.168,1.1,5.187,5.187,0,0,1-2.394-.52,4.936,4.936,0,0,1-1.71-1.42,6.359,6.359,0,0,1-1.026-2.06,8.377,8.377,0,0,1-.342-2.41v-0.36H912.12Zm-13.212-2.12a8.715,8.715,0,0,1,.486-2.15,6.467,6.467,0,0,1,1.026-1.84,4.643,4.643,0,0,1,1.584-1.27,4.88,4.88,0,0,1,2.2-.47,4.561,4.561,0,0,1,2.142.49,4.392,4.392,0,0,1,1.512,1.27,5.1,5.1,0,0,1,.864,1.82,8.5,8.5,0,0,1,.27,2.15h-10.08Zm29.412-12.21V1994h-3.528v3.2h3.528Zm-0.18,22.83v-18.18h-3.168v18.18h3.168Zm13.32-.04v-2.41c-0.312.05-.6,0.09-0.864,0.13a7.309,7.309,0,0,1-.828.05,4.235,4.235,0,0,1-1.314-.16,1.521,1.521,0,0,1-.756-0.52,1.964,1.964,0,0,1-.342-0.94,11.478,11.478,0,0,1-.072-1.4v-10.7h4.068v-2.19h-4.068v-4.86l-3.168,1.33v3.53h-3.564v2.19h3.564V2016a4.108,4.108,0,0,0,1.116,3.24,4.959,4.959,0,0,0,3.312.97,19.791,19.791,0,0,0,2.916-.22h0Zm24.948-7.23a4.439,4.439,0,0,0-1.17-1.43,6.893,6.893,0,0,0-1.764-.99,18.136,18.136,0,0,0-2.214-.68l-1.44-.36a9.605,9.605,0,0,1-2.754-1.08,2.267,2.267,0,0,1-.774-3.19,2.889,2.889,0,0,1,.9-0.84,3.949,3.949,0,0,1,1.206-.47,5.784,5.784,0,0,1,1.278-.14,3.674,3.674,0,0,1,2.574.87,3.448,3.448,0,0,1,1.026,2.51h3.132a6.394,6.394,0,0,0-.594-2.56,4.581,4.581,0,0,0-1.422-1.69,6.122,6.122,0,0,0-2.088-.95,9.947,9.947,0,0,0-2.556-.31,11.421,11.421,0,0,0-2.43.27,6.815,6.815,0,0,0-2.232.9,5.218,5.218,0,0,0-1.62,1.62,4.309,4.309,0,0,0-.63,2.38,4.01,4.01,0,0,0,1.71,3.47,7.284,7.284,0,0,0,1.764.92,20.661,20.661,0,0,0,2,.61l1.476,0.36a13.462,13.462,0,0,1,1.512.43,5.3,5.3,0,0,1,1.26.63,2.872,2.872,0,0,1,.846.88,2.287,2.287,0,0,1,.306,1.22,2.485,2.485,0,0,1-.378,1.4,3.216,3.216,0,0,1-.972.95,4.486,4.486,0,0,1-1.314.56,5.918,5.918,0,0,1-1.44.18,4.326,4.326,0,0,1-2.916-.9,3.823,3.823,0,0,1-1.152-2.81h-3.168a6.156,6.156,0,0,0,.558,2.77,4.887,4.887,0,0,0,1.53,1.82,6.371,6.371,0,0,0,2.268,1.01,12.1,12.1,0,0,0,2.736.3,11.852,11.852,0,0,0,2.646-.3,7.991,7.991,0,0,0,2.376-.97,5.241,5.241,0,0,0,1.71-1.75,5.033,5.033,0,0,0,.648-2.63A4.289,4.289,0,0,0,966.408,2012.76Zm7.344-15.56V1994h-3.528v3.2h3.528Zm-0.18,22.83v-18.18H970.4v18.18h3.168Zm32.108,0v-10.66a16.579,16.579,0,0,0-.27-3.08,6.347,6.347,0,0,0-.97-2.44,4.772,4.772,0,0,0-1.92-1.62,7.137,7.137,0,0,0-3.136-.6,6.543,6.543,0,0,0-6.3,3.75,5.777,5.777,0,0,0-2.232-2.88,6.664,6.664,0,0,0-3.564-.87,6.3,6.3,0,0,0-5.76,3.24l-0.108-3.02h-3.132c0.072,2.09.108,4.16,0.108,6.23v11.95h3.168v-10.08a9.017,9.017,0,0,1,.27-2.2,5.547,5.547,0,0,1,.846-1.89,4.377,4.377,0,0,1,1.476-1.31,4.314,4.314,0,0,1,2.16-.51,4.438,4.438,0,0,1,2.106.44,3.1,3.1,0,0,1,1.26,1.17,4.708,4.708,0,0,1,.612,1.72,13.13,13.13,0,0,1,.162,2.11v10.55h3.168v-10.08a10.9,10.9,0,0,1,.234-2.31,5.27,5.27,0,0,1,.774-1.87,3.831,3.831,0,0,1,1.44-1.26,4.914,4.914,0,0,1,2.268-.47,4.483,4.483,0,0,1,2.07.42,3.306,3.306,0,0,1,1.28,1.11,4.473,4.473,0,0,1,.65,1.66,11.237,11.237,0,0,1,.18,2.07v10.73h3.16Zm21.26-12.82a8.532,8.532,0,0,0-1.39-2.91,6.846,6.846,0,0,0-2.4-2.02,8.239,8.239,0,0,0-7.06.07,6.757,6.757,0,0,0-2.56,2.63l-0.11-3.13h-3.13q0.075,1.29.09,2.61c0.01,0.87.02,1.73,0.02,2.57v19.84h3.17v-9.58a8.635,8.635,0,0,0,2.45,2.31,6.512,6.512,0,0,0,3.29.75,7.245,7.245,0,0,0,3.57-.83,7.8,7.8,0,0,0,2.53-2.17,9.289,9.289,0,0,0,1.49-3.1,13.051,13.051,0,0,0,.49-3.58A13.185,13.185,0,0,0,1026.94,2007.21Zm-3.17,6.27a7.287,7.287,0,0,1-.9,2.32,5.031,5.031,0,0,1-1.67,1.67,4.855,4.855,0,0,1-2.59.65,4.337,4.337,0,0,1-2.45-.65,5.022,5.022,0,0,1-1.57-1.67,7.125,7.125,0,0,1-.82-2.31,13.47,13.47,0,0,1-.24-2.5,12.026,12.026,0,0,1,.29-2.59,7.459,7.459,0,0,1,.92-2.32,5.155,5.155,0,0,1,1.67-1.68,4.792,4.792,0,0,1,2.56-.64,4.283,4.283,0,0,1,2.43.66,4.942,4.942,0,0,1,1.56,1.69,7.712,7.712,0,0,1,.83,2.29,12.494,12.494,0,0,1,.25,2.48A12.755,12.755,0,0,1,1023.77,2013.48Zm10.25,6.55V1994h-3.17v26.03h3.17Zm19.94-8.5a19.39,19.39,0,0,0-.36-3.78,8.835,8.835,0,0,0-1.26-3.18,6.709,6.709,0,0,0-2.41-2.19,7.831,7.831,0,0,0-3.78-.82,9.087,9.087,0,0,0-3.85.75,7.61,7.61,0,0,0-2.69,2.07,8.94,8.94,0,0,0-1.58,3.07,13.342,13.342,0,0,0-.52,3.81,12.393,12.393,0,0,0,.52,3.7,8,8,0,0,0,1.57,2.91,6.766,6.766,0,0,0,2.61,1.89,9.429,9.429,0,0,0,3.69.66,8.848,8.848,0,0,0,5.25-1.53,6.88,6.88,0,0,0,2.7-4.73h-3.02a4.888,4.888,0,0,1-1.51,3.04,4.6,4.6,0,0,1-3.17,1.1,5.236,5.236,0,0,1-2.4-.52,5.01,5.01,0,0,1-1.71-1.42,6.511,6.511,0,0,1-1.02-2.06,8.308,8.308,0,0,1-.34-2.41v-0.36h13.28Zm-13.21-2.12a8.705,8.705,0,0,1,.48-2.15,6.728,6.728,0,0,1,1.03-1.84,4.648,4.648,0,0,1,1.58-1.27,4.916,4.916,0,0,1,2.2-.47,4.536,4.536,0,0,1,2.14.49,4.348,4.348,0,0,1,1.51,1.27,5.039,5.039,0,0,1,.87,1.82,8.5,8.5,0,0,1,.27,2.15h-10.08Zm40.35,10.62a15.99,15.99,0,0,1-.37-2.07,23.086,23.086,0,0,1-.2-3.26V2008q0-3.555-1.71-5.04a7.832,7.832,0,0,0-5.2-1.47,11.179,11.179,0,0,0-2.49.27,6.376,6.376,0,0,0-2.12.88,4.754,4.754,0,0,0-1.53,1.62,5.313,5.313,0,0,0-.67,2.48h3.1a3.375,3.375,0,0,1,1.13-2.5,4.391,4.391,0,0,1,2.65-.7,3.683,3.683,0,0,1,3.11,1.15,5.223,5.223,0,0,1,.88,3.24v1.08c-0.26-.02-0.54-0.04-0.84-0.05s-0.62-.02-0.96-0.02c-1.1,0-2.26.06-3.49,0.18a11.818,11.818,0,0,0-3.36.81,6.388,6.388,0,0,0-2.54,1.84,4.917,4.917,0,0,0-1.01,3.25,5.206,5.206,0,0,0,.52,2.42,4.862,4.862,0,0,0,1.41,1.67,6.1,6.1,0,0,0,2.03.99,8.709,8.709,0,0,0,2.41.32,8.8,8.8,0,0,0,3.49-.64,6.367,6.367,0,0,0,2.67-2.31c0.02,0.39.06,0.81,0.12,1.28s0.13,0.89.2,1.28h2.77Zm-3.56-6.41a7.022,7.022,0,0,1-.67,2.38,4.116,4.116,0,0,1-1.51,1.67,5.842,5.842,0,0,1-4.23.41,4.048,4.048,0,0,1-1.28-.64,3.2,3.2,0,0,1-.88-1.08,3.384,3.384,0,0,1-.32-1.48,3.073,3.073,0,0,1,.75-2.2,4.979,4.979,0,0,1,1.89-1.2,9.137,9.137,0,0,1,2.43-.52c0.87-.08,1.65-0.11,2.34-0.11h0.72a7.128,7.128,0,0,1,.9.07A24.166,24.166,0,0,1,1077.54,2013.62Zm23.51,6.41v-11.31a8.33,8.33,0,0,0-1.46-5.22c-0.97-1.24-2.65-1.87-5.02-1.87a6.945,6.945,0,0,0-3.4.78,7.491,7.491,0,0,0-2.54,2.35l-0.11-2.91h-3.13c0,0.26,0,.58.02,0.95s0.02,0.77.03,1.19,0.03,0.85.04,1.3,0.02,0.85.02,1.24v13.5h3.16v-9.07a13.257,13.257,0,0,1,.24-2.51,6.989,6.989,0,0,1,.79-2.21,4.369,4.369,0,0,1,1.53-1.58,4.5,4.5,0,0,1,2.45-.62,4.594,4.594,0,0,1,2.28.49,3.2,3.2,0,0,1,1.28,1.3,4.926,4.926,0,0,1,.54,1.87c0.07,0.71.11,1.46,0.11,2.25v10.08h3.17Zm20.45,0q-0.075-1.335-.09-2.67c-0.02-.88-0.02-1.76-0.02-2.62V1994h-3.17v10.73a6.623,6.623,0,0,0-2.47-2.49,7.326,7.326,0,0,0-3.47-.75,7.1,7.1,0,0,0-5.94,2.88,8.745,8.745,0,0,0-1.44,2.99,12.932,12.932,0,0,0-.47,3.45,13.715,13.715,0,0,0,.47,3.57,9.188,9.188,0,0,0,1.44,3.06,7.282,7.282,0,0,0,2.48,2.12,7.581,7.581,0,0,0,3.57.79,6.777,6.777,0,0,0,3.35-.75,8.331,8.331,0,0,0,2.48-2.34l0.18,2.77h3.1Zm-3.48-6.59a7.182,7.182,0,0,1-.82,2.29,5.1,5.1,0,0,1-1.56,1.67,4.325,4.325,0,0,1-2.44.65,4.68,4.68,0,0,1-4.25-2.27,6.941,6.941,0,0,1-.9-2.29,12.564,12.564,0,0,1-.27-2.61,14.443,14.443,0,0,1,.23-2.5,7.552,7.552,0,0,1,.81-2.3,4.9,4.9,0,0,1,1.54-1.69,4.178,4.178,0,0,1,2.44-.67,4.734,4.734,0,0,1,2.55.65,5.286,5.286,0,0,1,1.69,1.67,7.331,7.331,0,0,1,.93,2.32,12.117,12.117,0,0,1,.29,2.6A13.261,13.261,0,0,1,1118.02,2013.44Zm32.67-1.91a19.39,19.39,0,0,0-.36-3.78,8.835,8.835,0,0,0-1.26-3.18,6.709,6.709,0,0,0-2.41-2.19,7.831,7.831,0,0,0-3.78-.82,9.087,9.087,0,0,0-3.85.75,7.485,7.485,0,0,0-2.68,2.07,8.788,8.788,0,0,0-1.59,3.07,13.342,13.342,0,0,0-.52,3.81,12.393,12.393,0,0,0,.52,3.7,8,8,0,0,0,1.57,2.91,6.766,6.766,0,0,0,2.61,1.89,9.429,9.429,0,0,0,3.69.66,8.848,8.848,0,0,0,5.25-1.53,6.88,6.88,0,0,0,2.7-4.73h-3.02a4.888,4.888,0,0,1-1.51,3.04,4.58,4.58,0,0,1-3.17,1.1,5.164,5.164,0,0,1-2.39-.52,4.829,4.829,0,0,1-1.71-1.42,6.327,6.327,0,0,1-1.03-2.06,8.308,8.308,0,0,1-.34-2.41v-0.36h13.28Zm-13.21-2.12a8.291,8.291,0,0,1,.49-2.15,6.452,6.452,0,0,1,1.02-1.84,4.59,4.59,0,0,1,1.59-1.27,4.842,4.842,0,0,1,2.19-.47,4.536,4.536,0,0,1,2.14.49,4.383,4.383,0,0,1,1.52,1.27,5.192,5.192,0,0,1,.86,1.82,8.5,8.5,0,0,1,.27,2.15h-10.08Zm31,10.62a15.567,15.567,0,0,1-.38-2.07,24.684,24.684,0,0,1-.2-3.26V2008q0-3.555-1.71-5.04a7.814,7.814,0,0,0-5.2-1.47,11.244,11.244,0,0,0-2.49.27,6.376,6.376,0,0,0-2.12.88,4.953,4.953,0,0,0-1.53,1.62,5.313,5.313,0,0,0-.67,2.48h3.1a3.375,3.375,0,0,1,1.13-2.5,4.391,4.391,0,0,1,2.65-.7,3.67,3.67,0,0,1,3.11,1.15,5.223,5.223,0,0,1,.89,3.24v1.08c-0.27-.02-0.55-0.04-0.85-0.05s-0.62-.02-0.95-0.02c-1.11,0-2.27.06-3.5,0.18a11.818,11.818,0,0,0-3.36.81,6.388,6.388,0,0,0-2.54,1.84,4.917,4.917,0,0,0-1.01,3.25,5.334,5.334,0,0,0,.52,2.42,4.862,4.862,0,0,0,1.41,1.67,6.2,6.2,0,0,0,2.03.99,8.709,8.709,0,0,0,2.41.32,8.884,8.884,0,0,0,3.5-.64,6.4,6.4,0,0,0,2.66-2.31c0.02,0.39.07,0.81,0.13,1.28s0.12,0.89.19,1.28h2.78Zm-3.57-6.41a7.017,7.017,0,0,1-.66,2.38,4.213,4.213,0,0,1-1.52,1.67,5.009,5.009,0,0,1-2.71.63,5.081,5.081,0,0,1-1.52-.22,3.894,3.894,0,0,1-1.27-.64,3.112,3.112,0,0,1-.89-1.08,3.384,3.384,0,0,1-.32-1.48,3.034,3.034,0,0,1,.76-2.2,4.83,4.83,0,0,1,1.89-1.2,8.971,8.971,0,0,1,2.43-.52c0.86-.08,1.64-0.11,2.34-0.11h0.72a7.4,7.4,0,0,1,.9.07A24.163,24.163,0,0,1,1164.91,2013.62Zm20.74-.86a4.491,4.491,0,0,0-1.17-1.43,6.8,6.8,0,0,0-1.77-.99,17.961,17.961,0,0,0-2.21-.68l-1.44-.36a9.509,9.509,0,0,1-2.75-1.08,2.263,2.263,0,0,1-.78-3.19,2.889,2.889,0,0,1,.9-0.84,3.913,3.913,0,0,1,1.21-.47,5.763,5.763,0,0,1,1.28-.14,3.67,3.67,0,0,1,2.57.87,3.443,3.443,0,0,1,1.03,2.51h3.13a6.392,6.392,0,0,0-.6-2.56,4.5,4.5,0,0,0-1.42-1.69,6.064,6.064,0,0,0-2.09-.95,9.9,9.9,0,0,0-2.55-.31,11.449,11.449,0,0,0-2.43.27,6.786,6.786,0,0,0-2.23.9,5.218,5.218,0,0,0-1.62,1.62,4.309,4.309,0,0,0-.63,2.38,4.225,4.225,0,0,0,.46,2.07,4.31,4.31,0,0,0,1.25,1.4,7.147,7.147,0,0,0,1.76.92,20.87,20.87,0,0,0,2,.61l1.47,0.36a13.484,13.484,0,0,1,1.52.43,5.3,5.3,0,0,1,1.26.63,2.8,2.8,0,0,1,.84.88,2.235,2.235,0,0,1,.31,1.22,2.5,2.5,0,0,1-.38,1.4,3.256,3.256,0,0,1-.97.95,4.569,4.569,0,0,1-1.32.56,5.918,5.918,0,0,1-1.44.18,4.313,4.313,0,0,1-2.91-.9,3.8,3.8,0,0,1-1.15-2.81h-3.17a6.05,6.05,0,0,0,.56,2.77,4.85,4.85,0,0,0,1.53,1.82,6.3,6.3,0,0,0,2.26,1.01,12.175,12.175,0,0,0,2.74.3,11.9,11.9,0,0,0,2.65-.3,8.042,8.042,0,0,0,2.37-.97,5.2,5.2,0,0,0,1.71-1.75,5.052,5.052,0,0,0,.65-2.63A4.265,4.265,0,0,0,1185.65,2012.76Zm19.73-10.91h-3.21l-5.69,14.87-5.72-14.87h-3.6l7.74,18.14-2.99,6.88h3.17Zm20.37-5.65v-2.31c-0.91-.07-1.79-0.11-2.63-0.11a6.11,6.11,0,0,0-2.62.47,3.348,3.348,0,0,0-1.48,1.32,5.069,5.069,0,0,0-.65,2.01,22.222,22.222,0,0,0-.14,2.54v1.73h-3.64v2.19h3.64v15.99h3.17v-15.99h4.06v-2.19h-4.06v-3.31a2.061,2.061,0,0,1,.81-1.95,4.269,4.269,0,0,1,2.14-.47c0.24,0,.47.01,0.7,0.02s0.46,0.03.7,0.06h0Zm17.86,10.83a8.258,8.258,0,0,0-1.72-2.97,7.57,7.57,0,0,0-2.79-1.92,10.818,10.818,0,0,0-7.63.01,8.044,8.044,0,0,0-2.83,1.95,8.508,8.508,0,0,0-1.77,2.97,11.184,11.184,0,0,0-.61,3.78,11.705,11.705,0,0,0,.59,3.81,8.786,8.786,0,0,0,1.73,3.05,7.881,7.881,0,0,0,2.82,1.99,9.6,9.6,0,0,0,3.84.72,9.285,9.285,0,0,0,3.79-.73,8.239,8.239,0,0,0,2.81-2.04,8.806,8.806,0,0,0,1.75-3.04,11.487,11.487,0,0,0,.59-3.76A12.153,12.153,0,0,0,1243.61,2007.03Zm-3.08,6.45a7.51,7.51,0,0,1-.99,2.4,5.518,5.518,0,0,1-1.75,1.75,4.662,4.662,0,0,1-2.57.67,4.779,4.779,0,0,1-2.61-.67,5.394,5.394,0,0,1-1.73-1.73,7.738,7.738,0,0,1-.97-2.38,11.913,11.913,0,0,1-.31-2.65,11.45,11.45,0,0,1,.31-2.62,7.131,7.131,0,0,1,.97-2.29,5.067,5.067,0,0,1,1.75-1.63,5.8,5.8,0,0,1,5.18,0,5.067,5.067,0,0,1,1.75,1.63,7.131,7.131,0,0,1,.97,2.29,11.45,11.45,0,0,1,.31,2.62A11.769,11.769,0,0,1,1240.53,2013.48Zm16.79-8.68v-2.99c-0.14-.02-0.3-0.04-0.48-0.05s-0.36-.02-0.52-0.02a6.905,6.905,0,0,0-3.23.7,6,6,0,0,0-2.32,2.32l-0.14-2.91h-3.1c0.07,1.77.11,3.55,0.11,5.33v12.85h3.17v-9.79a6.869,6.869,0,0,1,1.08-4.09c0.72-1,2.01-1.49,3.89-1.49,0.26,0,.52.01,0.79,0.03s0.51,0.06.75,0.11h0Z" transform="translate(-722 -1328)"/>
  </g>
</svg>
