<svg xmlns="http://www.w3.org/2000/svg" width="600" height="1200" viewBox="0 0 600 1200">
  <defs>
    <style>
      .cls-1 {
        fill: #fff;
        fill-rule: evenodd;
      }
    </style>
  </defs>
  <g id="International_Engage_Banner_300x600_Frame_2" data-name="International Engage Banner 300x600 Frame 2">
    <path id="We_make_it_simple_and_easy_for_everyone_to_open_a_bank_account_copy_2" data-name="We make it simple and easy for everyone to open a bank account  copy 2" class="cls-1" d="M780.072,2054.73a19.39,19.39,0,0,0-.36-3.78,8.835,8.835,0,0,0-1.26-3.18,6.731,6.731,0,0,0-2.412-2.19,7.82,7.82,0,0,0-3.78-.82,9.1,9.1,0,0,0-3.852.75,7.563,7.563,0,0,0-2.682,2.07,8.777,8.777,0,0,0-1.584,3.07,13.412,13.412,0,0,0-.522,3.81,12.457,12.457,0,0,0,.522,3.7,8.027,8.027,0,0,0,1.566,2.91,6.857,6.857,0,0,0,2.61,1.89,9.456,9.456,0,0,0,3.69.66,8.859,8.859,0,0,0,5.256-1.53,6.88,6.88,0,0,0,2.7-4.73H776.94a4.87,4.87,0,0,1-1.512,3.04,4.575,4.575,0,0,1-3.168,1.1,5.187,5.187,0,0,1-2.394-.52,4.936,4.936,0,0,1-1.71-1.42,6.359,6.359,0,0,1-1.026-2.06,8.377,8.377,0,0,1-.342-2.41v-0.36h13.284Zm-13.212-2.12a8.715,8.715,0,0,1,.486-2.15,6.467,6.467,0,0,1,1.026-1.84,4.643,4.643,0,0,1,1.584-1.27,4.88,4.88,0,0,1,2.2-.47,4.561,4.561,0,0,1,2.142.49,4.392,4.392,0,0,1,1.512,1.27,5.1,5.1,0,0,1,.864,1.82,8.5,8.5,0,0,1,.27,2.15H766.86Zm31.9-7.56h-3.24l-5.76,15.12-5.652-15.12h-3.6l7.38,18.18H791.2Zm16.776,9.68a19.39,19.39,0,0,0-.36-3.78,8.835,8.835,0,0,0-1.26-3.18,6.731,6.731,0,0,0-2.412-2.19,7.82,7.82,0,0,0-3.78-.82,9.1,9.1,0,0,0-3.852.75,7.563,7.563,0,0,0-2.682,2.07,8.777,8.777,0,0,0-1.584,3.07,13.412,13.412,0,0,0-.522,3.81,12.457,12.457,0,0,0,.522,3.7,8.027,8.027,0,0,0,1.566,2.91,6.857,6.857,0,0,0,2.61,1.89,9.456,9.456,0,0,0,3.69.66,8.859,8.859,0,0,0,5.256-1.53,6.88,6.88,0,0,0,2.7-4.73H812.4a4.87,4.87,0,0,1-1.512,3.04,4.575,4.575,0,0,1-3.168,1.1,5.187,5.187,0,0,1-2.394-.52,4.936,4.936,0,0,1-1.71-1.42,6.359,6.359,0,0,1-1.026-2.06,8.377,8.377,0,0,1-.342-2.41v-0.36h13.284Zm-13.212-2.12a8.715,8.715,0,0,1,.486-2.15,6.467,6.467,0,0,1,1.026-1.84,4.643,4.643,0,0,1,1.584-1.27,4.88,4.88,0,0,1,2.2-.47,4.561,4.561,0,0,1,2.142.49,4.392,4.392,0,0,1,1.512,1.27,5.1,5.1,0,0,1,.864,1.82,8.5,8.5,0,0,1,.27,2.15H802.32Zm26.388-4.61v-2.99c-0.144-.02-0.306-0.04-0.486-0.05s-0.354-.02-0.522-0.02a6.877,6.877,0,0,0-3.222.7,5.986,5.986,0,0,0-2.322,2.32l-0.144-2.91h-3.1c0.072,1.77.108,3.55,0.108,5.33v12.85h3.168v-9.79a6.869,6.869,0,0,1,1.08-4.09c0.72-1,2.016-1.49,3.888-1.49q0.4,0,.792.03c0.264,0.03.516,0.06,0.756,0.11h0Zm18.036-2.95h-3.2l-5.688,14.87-5.724-14.87h-3.6l7.74,18.14-2.988,6.88h3.168Zm17.675,5.18a8.2,8.2,0,0,0-1.714-2.97,7.6,7.6,0,0,0-2.8-1.92,10.815,10.815,0,0,0-7.629.01,8.052,8.052,0,0,0-2.832,1.95,8.489,8.489,0,0,0-1.768,2.97,11.209,11.209,0,0,0-.613,3.78,11.786,11.786,0,0,0,.6,3.81,8.774,8.774,0,0,0,1.732,3.05,7.845,7.845,0,0,0,2.813,1.99,9.661,9.661,0,0,0,3.842.72,9.269,9.269,0,0,0,3.788-.73,8.184,8.184,0,0,0,2.813-2.04,8.759,8.759,0,0,0,1.75-3.04,11.594,11.594,0,0,0,.6-3.76A12.008,12.008,0,0,0,864.419,2050.23Zm-3.077,6.45a7.7,7.7,0,0,1-.99,2.4,5.486,5.486,0,0,1-1.746,1.75,4.7,4.7,0,0,1-2.574.67,4.769,4.769,0,0,1-2.61-.67,5.349,5.349,0,0,1-1.728-1.73,7.741,7.741,0,0,1-.972-2.38,11.677,11.677,0,0,1-.306-2.65,11.229,11.229,0,0,1,.306-2.62,7.134,7.134,0,0,1,.972-2.29,5,5,0,0,1,1.746-1.63,5.812,5.812,0,0,1,5.184,0,5,5,0,0,1,1.746,1.63,7.134,7.134,0,0,1,.972,2.29,11.229,11.229,0,0,1,.306,2.62A11.529,11.529,0,0,1,861.342,2056.68ZM884,2063.23v-11.31a8.317,8.317,0,0,0-1.458-5.22c-0.972-1.24-2.646-1.87-5.022-1.87a6.975,6.975,0,0,0-3.4.78,7.541,7.541,0,0,0-2.538,2.35l-0.108-2.91h-3.132c0,0.26.006,0.58,0.018,0.95s0.024,0.77.036,1.19,0.024,0.85.036,1.3,0.018,0.85.018,1.24v13.5h3.168v-9.07a13.586,13.586,0,0,1,.234-2.51,7.091,7.091,0,0,1,.792-2.21,4.4,4.4,0,0,1,1.53-1.58,4.5,4.5,0,0,1,2.448-.62,4.629,4.629,0,0,1,2.286.49,3.221,3.221,0,0,1,1.278,1.3,5,5,0,0,1,.54,1.87,22.327,22.327,0,0,1,.108,2.25v10.08H884Zm19.836-8.5a19.39,19.39,0,0,0-.36-3.78,8.835,8.835,0,0,0-1.26-3.18,6.731,6.731,0,0,0-2.412-2.19,7.82,7.82,0,0,0-3.78-.82,9.1,9.1,0,0,0-3.852.75,7.563,7.563,0,0,0-2.682,2.07,8.777,8.777,0,0,0-1.584,3.07,13.412,13.412,0,0,0-.522,3.81,12.457,12.457,0,0,0,.522,3.7,8.027,8.027,0,0,0,1.566,2.91,6.857,6.857,0,0,0,2.61,1.89,9.456,9.456,0,0,0,3.69.66,8.859,8.859,0,0,0,5.256-1.53,6.88,6.88,0,0,0,2.7-4.73h-3.024a4.87,4.87,0,0,1-1.512,3.04,4.575,4.575,0,0,1-3.168,1.1,5.187,5.187,0,0,1-2.394-.52,4.936,4.936,0,0,1-1.71-1.42,6.359,6.359,0,0,1-1.026-2.06,8.377,8.377,0,0,1-.342-2.41v-0.36H903.84Zm-13.212-2.12a8.715,8.715,0,0,1,.486-2.15,6.467,6.467,0,0,1,1.026-1.84,4.643,4.643,0,0,1,1.584-1.27,4.88,4.88,0,0,1,2.2-.47,4.561,4.561,0,0,1,2.142.49,4.392,4.392,0,0,1,1.512,1.27,5.1,5.1,0,0,1,.864,1.82,8.5,8.5,0,0,1,.27,2.15h-10.08Zm33.663,10.58v-2.41c-0.312.05-.6,0.09-0.864,0.13a7.309,7.309,0,0,1-.828.05,4.235,4.235,0,0,1-1.314-.16,1.521,1.521,0,0,1-.756-0.52,1.964,1.964,0,0,1-.342-0.94,11.478,11.478,0,0,1-.072-1.4v-10.7h4.068v-2.19h-4.068v-4.86l-3.168,1.33v3.53h-3.564v2.19h3.564v11.96a4.108,4.108,0,0,0,1.116,3.24,4.959,4.959,0,0,0,3.312.97,19.791,19.791,0,0,0,2.916-.22h0Zm18.827-12.96a8.215,8.215,0,0,0-1.713-2.97,7.609,7.609,0,0,0-2.8-1.92,10.815,10.815,0,0,0-7.629.01,8.061,8.061,0,0,0-2.832,1.95,8.489,8.489,0,0,0-1.768,2.97,11.209,11.209,0,0,0-.613,3.78,11.786,11.786,0,0,0,.595,3.81,8.774,8.774,0,0,0,1.732,3.05,7.845,7.845,0,0,0,2.813,1.99,9.665,9.665,0,0,0,3.842.72,9.266,9.266,0,0,0,3.788-.73,8.2,8.2,0,0,0,2.814-2.04,8.772,8.772,0,0,0,1.749-3.04,11.567,11.567,0,0,0,.6-3.76A12.008,12.008,0,0,0,943.118,2050.23Zm-3.077,6.45a7.7,7.7,0,0,1-.99,2.4,5.486,5.486,0,0,1-1.746,1.75,4.7,4.7,0,0,1-2.574.67,4.769,4.769,0,0,1-2.61-.67,5.349,5.349,0,0,1-1.728-1.73,7.741,7.741,0,0,1-.972-2.38,11.677,11.677,0,0,1-.306-2.65,11.229,11.229,0,0,1,.306-2.62,7.134,7.134,0,0,1,.972-2.29,5,5,0,0,1,1.746-1.63,5.812,5.812,0,0,1,5.184,0,5,5,0,0,1,1.746,1.63,7.134,7.134,0,0,1,.972,2.29,11.229,11.229,0,0,1,.306,2.62A11.529,11.529,0,0,1,940.041,2056.68Zm31.592-6.45a8.2,8.2,0,0,0-1.713-2.97,7.609,7.609,0,0,0-2.8-1.92,10.815,10.815,0,0,0-7.629.01,8.061,8.061,0,0,0-2.832,1.95,8.472,8.472,0,0,0-1.767,2.97,11.209,11.209,0,0,0-.614,3.78,11.759,11.759,0,0,0,.6,3.81,8.756,8.756,0,0,0,1.731,3.05,7.84,7.84,0,0,0,2.814,1.99,9.656,9.656,0,0,0,3.841.72,9.266,9.266,0,0,0,3.788-.73,8.2,8.2,0,0,0,2.814-2.04,8.772,8.772,0,0,0,1.749-3.04,11.567,11.567,0,0,0,.6-3.76A12.008,12.008,0,0,0,971.633,2050.23Zm-3.077,6.45a7.7,7.7,0,0,1-.99,2.4,5.486,5.486,0,0,1-1.746,1.75,4.7,4.7,0,0,1-2.574.67,4.769,4.769,0,0,1-2.61-.67,5.349,5.349,0,0,1-1.728-1.73,7.741,7.741,0,0,1-.972-2.38,11.677,11.677,0,0,1-.306-2.65,11.229,11.229,0,0,1,.306-2.62,7.134,7.134,0,0,1,.972-2.29,5,5,0,0,1,1.746-1.63,5.812,5.812,0,0,1,5.184,0,5,5,0,0,1,1.746,1.63,7.134,7.134,0,0,1,.972,2.29,11.229,11.229,0,0,1,.306,2.62A11.529,11.529,0,0,1,968.556,2056.68Zm23.651-6.27a8.625,8.625,0,0,0-1.39-2.91,6.855,6.855,0,0,0-2.4-2.02,8.23,8.23,0,0,0-7.056.07,6.743,6.743,0,0,0-2.563,2.63l-0.108-3.13h-3.132q0.072,1.29.09,2.61c0.012,0.87.018,1.73,0.018,2.57v19.84h3.168v-9.58a8.558,8.558,0,0,0,2.455,2.31,6.494,6.494,0,0,0,3.285.75,7.257,7.257,0,0,0,3.573-.83,7.721,7.721,0,0,0,2.526-2.17,9.323,9.323,0,0,0,1.5-3.1A13.449,13.449,0,0,0,992.207,2050.41Zm-3.167,6.27a7.287,7.287,0,0,1-.9,2.32,5.081,5.081,0,0,1-1.674,1.67,4.848,4.848,0,0,1-2.592.65,4.339,4.339,0,0,1-2.448-.65,4.99,4.99,0,0,1-1.566-1.67,7.135,7.135,0,0,1-.828-2.31,13.8,13.8,0,0,1-.234-2.5,11.9,11.9,0,0,1,.288-2.59,7.505,7.505,0,0,1,.918-2.32,5.11,5.11,0,0,1,1.674-1.68,4.773,4.773,0,0,1,2.556-.64,4.283,4.283,0,0,1,2.43.66,5,5,0,0,1,1.566,1.69,7.822,7.822,0,0,1,.828,2.29A12.493,12.493,0,0,1,989.04,2056.68Zm22.19-1.95a19.39,19.39,0,0,0-.36-3.78,8.835,8.835,0,0,0-1.26-3.18,6.709,6.709,0,0,0-2.41-2.19,7.831,7.831,0,0,0-3.78-.82,9.087,9.087,0,0,0-3.85.75,7.563,7.563,0,0,0-2.682,2.07,8.777,8.777,0,0,0-1.584,3.07,13.412,13.412,0,0,0-.522,3.81,12.457,12.457,0,0,0,.522,3.7,8.027,8.027,0,0,0,1.566,2.91,6.857,6.857,0,0,0,2.61,1.89,9.429,9.429,0,0,0,3.69.66,8.88,8.88,0,0,0,5.26-1.53,6.88,6.88,0,0,0,2.7-4.73h-3.03a4.838,4.838,0,0,1-1.51,3.04,4.58,4.58,0,0,1-3.17,1.1,5.164,5.164,0,0,1-2.39-.52,4.888,4.888,0,0,1-1.712-1.42,6.359,6.359,0,0,1-1.026-2.06,8.377,8.377,0,0,1-.342-2.41v-0.36h13.28Zm-13.208-2.12a8.715,8.715,0,0,1,.486-2.15,6.467,6.467,0,0,1,1.026-1.84,4.594,4.594,0,0,1,1.586-1.27,4.842,4.842,0,0,1,2.19-.47,4.606,4.606,0,0,1,2.15.49,4.441,4.441,0,0,1,1.51,1.27,5.192,5.192,0,0,1,.86,1.82,8.5,8.5,0,0,1,.27,2.15H998.022Zm32.258,10.62v-11.31a8.33,8.33,0,0,0-1.46-5.22c-0.97-1.24-2.65-1.87-5.02-1.87a6.945,6.945,0,0,0-3.4.78,7.491,7.491,0,0,0-2.54,2.35l-0.11-2.91h-3.13c0,0.26,0,.58.02,0.95s0.02,0.77.03,1.19,0.03,0.85.04,1.3,0.02,0.85.02,1.24v13.5h3.16v-9.07a13.257,13.257,0,0,1,.24-2.51,6.989,6.989,0,0,1,.79-2.21,4.369,4.369,0,0,1,1.53-1.58,4.5,4.5,0,0,1,2.45-.62,4.594,4.594,0,0,1,2.28.49,3.2,3.2,0,0,1,1.28,1.3,4.926,4.926,0,0,1,.54,1.87c0.07,0.71.11,1.46,0.11,2.25v10.08h3.17Zm27.47,0a15.567,15.567,0,0,1-.38-2.07,24.684,24.684,0,0,1-.2-3.26v-6.7q0-3.555-1.71-5.04a7.814,7.814,0,0,0-5.2-1.47,11.154,11.154,0,0,0-2.48.27,6.518,6.518,0,0,0-2.13.88,4.953,4.953,0,0,0-1.53,1.62,5.433,5.433,0,0,0-.66,2.48h3.09a3.344,3.344,0,0,1,1.14-2.5,4.358,4.358,0,0,1,2.64-.7,3.7,3.7,0,0,1,3.12,1.15,5.223,5.223,0,0,1,.88,3.24v1.08c-0.26-.02-0.55-0.04-0.85-0.05s-0.61-.02-0.95-0.02c-1.1,0-2.27.06-3.49,0.18a11.8,11.8,0,0,0-3.37.81,6.459,6.459,0,0,0-2.54,1.84,4.913,4.913,0,0,0-1,3.25,5.206,5.206,0,0,0,.52,2.42,4.834,4.834,0,0,0,1.4,1.67,6.247,6.247,0,0,0,2.04.99,8.659,8.659,0,0,0,2.41.32,8.834,8.834,0,0,0,3.49-.64,6.286,6.286,0,0,0,2.66-2.31c0.03,0.39.07,0.81,0.13,1.28s0.13,0.89.2,1.28h2.77Zm-3.56-6.41a7.022,7.022,0,0,1-.67,2.38,4.188,4.188,0,0,1-1.51,1.67,5.842,5.842,0,0,1-4.23.41,3.945,3.945,0,0,1-1.28-.64,3.085,3.085,0,0,1-.88-1.08,3.253,3.253,0,0,1-.33-1.48,3.077,3.077,0,0,1,.76-2.2,4.83,4.83,0,0,1,1.89-1.2,9.137,9.137,0,0,1,2.43-.52c0.86-.08,1.64-0.11,2.34-0.11h0.72a7.128,7.128,0,0,1,.9.07A26.817,26.817,0,0,1,1054.19,2056.82Zm32.96-6.41a8.917,8.917,0,0,0-1.39-2.93,7.014,7.014,0,0,0-2.38-2.04,7.468,7.468,0,0,0-3.47-.75,6.75,6.75,0,0,0-6.13,3.42l-0.01-10.91h-3.17v20.74c0,0.88,0,1.77-.01,2.64s-0.05,1.76-.09,2.65h3.09l0.18-2.77a8.289,8.289,0,0,0,2.44,2.32,6.432,6.432,0,0,0,3.27.77,7.378,7.378,0,0,0,3.59-.83,7.631,7.631,0,0,0,2.54-2.17,9.308,9.308,0,0,0,1.5-3.1,13.445,13.445,0,0,0,.49-3.58A13.185,13.185,0,0,0,1087.15,2050.41Zm-3.17,6.28a6.941,6.941,0,0,1-.9,2.29,4.976,4.976,0,0,1-1.68,1.64,4.92,4.92,0,0,1-2.59.63,4.359,4.359,0,0,1-2.45-.65,4.993,4.993,0,0,1-1.56-1.67,7.2,7.2,0,0,1-.83-2.29,13.236,13.236,0,0,1-.23-2.48,12.1,12.1,0,0,1,.28-2.6,7.589,7.589,0,0,1,.94-2.32,5.286,5.286,0,0,1,1.69-1.67,4.8,4.8,0,0,1,2.56-.65,4.123,4.123,0,0,1,2.41.67,5.057,5.057,0,0,1,1.57,1.71,7.239,7.239,0,0,1,.82,2.3,13.261,13.261,0,0,1,.24,2.48A12.564,12.564,0,0,1,1083.98,2056.69Zm21.36,6.54a15.99,15.99,0,0,1-.37-2.07,23.086,23.086,0,0,1-.2-3.26v-6.7q0-3.555-1.71-5.04a7.832,7.832,0,0,0-5.2-1.47,11.179,11.179,0,0,0-2.49.27,6.376,6.376,0,0,0-2.12.88,4.754,4.754,0,0,0-1.53,1.62,5.313,5.313,0,0,0-.67,2.48h3.1a3.375,3.375,0,0,1,1.13-2.5,4.391,4.391,0,0,1,2.65-.7,3.683,3.683,0,0,1,3.11,1.15,5.223,5.223,0,0,1,.88,3.24v1.08c-0.26-.02-0.54-0.04-0.84-0.05s-0.62-.02-0.96-0.02c-1.1,0-2.26.06-3.49,0.18a11.818,11.818,0,0,0-3.36.81,6.388,6.388,0,0,0-2.54,1.84,4.917,4.917,0,0,0-1.01,3.25,5.206,5.206,0,0,0,.52,2.42,4.862,4.862,0,0,0,1.41,1.67,6.1,6.1,0,0,0,2.03.99,8.709,8.709,0,0,0,2.41.32,8.8,8.8,0,0,0,3.49-.64,6.367,6.367,0,0,0,2.67-2.31c0.02,0.39.06,0.81,0.12,1.28s0.13,0.89.2,1.28h2.77Zm-3.56-6.41a7.022,7.022,0,0,1-.67,2.38,4.116,4.116,0,0,1-1.51,1.67,5.842,5.842,0,0,1-4.23.41,4.048,4.048,0,0,1-1.28-.64,3.2,3.2,0,0,1-.88-1.08,3.384,3.384,0,0,1-.32-1.48,3.073,3.073,0,0,1,.75-2.2,4.979,4.979,0,0,1,1.89-1.2,9.137,9.137,0,0,1,2.43-.52c0.87-.08,1.65-0.11,2.34-0.11h0.72a7.128,7.128,0,0,1,.9.07A24.166,24.166,0,0,1,1101.78,2056.82Zm23.51,6.41v-11.31a8.33,8.33,0,0,0-1.46-5.22c-0.97-1.24-2.65-1.87-5.02-1.87a6.945,6.945,0,0,0-3.4.78,7.491,7.491,0,0,0-2.54,2.35l-0.11-2.91h-3.13c0,0.26,0,.58.02,0.95s0.02,0.77.03,1.19,0.03,0.85.04,1.3,0.02,0.85.02,1.24v13.5h3.16v-9.07a13.257,13.257,0,0,1,.24-2.51,6.989,6.989,0,0,1,.79-2.21,4.369,4.369,0,0,1,1.53-1.58,4.5,4.5,0,0,1,2.45-.62,4.594,4.594,0,0,1,2.28.49,3.2,3.2,0,0,1,1.28,1.3,4.926,4.926,0,0,1,.54,1.87c0.07,0.71.11,1.46,0.11,2.25v10.08h3.17Zm20.91,0-9.18-10.37,8.46-7.85h-4.03l-8.17,7.96,8.86,10.26h4.06Zm-13.03,0V2037.2H1130v26.03h3.17Zm38.02,0a17.438,17.438,0,0,1-.38-2.07,24.791,24.791,0,0,1-.19-3.26v-6.7q0-3.555-1.71-5.04a7.844,7.844,0,0,0-5.21-1.47,11.154,11.154,0,0,0-2.48.27,6.376,6.376,0,0,0-2.12.88,4.754,4.754,0,0,0-1.53,1.62,5.313,5.313,0,0,0-.67,2.48h3.1a3.34,3.34,0,0,1,1.13-2.5,4.391,4.391,0,0,1,2.65-.7,3.7,3.7,0,0,1,3.11,1.15,5.223,5.223,0,0,1,.88,3.24v1.08c-0.26-.02-0.54-0.04-0.84-0.05s-0.62-.02-0.96-0.02c-1.1,0-2.27.06-3.49,0.18a11.887,11.887,0,0,0-3.37.81,6.355,6.355,0,0,0-2.53,1.84,4.863,4.863,0,0,0-1.01,3.25,5.206,5.206,0,0,0,.52,2.42,4.946,4.946,0,0,0,1.4,1.67,6.247,6.247,0,0,0,2.04.99,8.709,8.709,0,0,0,2.41.32,8.834,8.834,0,0,0,3.49-.64,6.367,6.367,0,0,0,2.67-2.31c0.02,0.39.06,0.81,0.12,1.28s0.13,0.89.2,1.28h2.77Zm-3.56-6.41a7.022,7.022,0,0,1-.67,2.38,4.188,4.188,0,0,1-1.51,1.67,5.842,5.842,0,0,1-4.23.41,3.945,3.945,0,0,1-1.28-.64,3.2,3.2,0,0,1-.88-1.08,3.249,3.249,0,0,1-.32-1.48,3.073,3.073,0,0,1,.75-2.2,4.979,4.979,0,0,1,1.89-1.2,9.137,9.137,0,0,1,2.43-.52c0.87-.08,1.65-0.11,2.34-0.11h0.72a7.128,7.128,0,0,1,.9.07A26.817,26.817,0,0,1,1167.63,2056.82Zm23.11,0.32-0.11-.03h-2.99a4.833,4.833,0,0,1-1.33,3.19,4.3,4.3,0,0,1-3.2,1.2,4.8,4.8,0,0,1-2.56-.65,5.441,5.441,0,0,1-1.71-1.7,7.246,7.246,0,0,1-.95-2.34,12.117,12.117,0,0,1-.29-2.6,13,13,0,0,1,.29-2.71,7.486,7.486,0,0,1,.93-2.38,4.893,4.893,0,0,1,4.43-2.34,4.165,4.165,0,0,1,3.06,1.09,4.546,4.546,0,0,1,1.26,3.05h3.1a6.459,6.459,0,0,0-2.31-4.81,8.086,8.086,0,0,0-5.11-1.57,9.588,9.588,0,0,0-3.9.74,7.777,7.777,0,0,0-2.81,2.05,8.751,8.751,0,0,0-1.71,3.12,12.487,12.487,0,0,0-.58,3.89,11.583,11.583,0,0,0,.58,3.76,8.085,8.085,0,0,0,1.69,2.93,7.634,7.634,0,0,0,2.75,1.91,9.762,9.762,0,0,0,3.8.68,10.424,10.424,0,0,0,2.9-.39,7.136,7.136,0,0,0,2.38-1.21,6.2,6.2,0,0,0,1.65-2.03,7.215,7.215,0,0,0,.74-2.85h0Zm18.22,0-0.11-.03h-2.99a4.883,4.883,0,0,1-1.33,3.19,4.307,4.307,0,0,1-3.21,1.2,4.759,4.759,0,0,1-2.55-.65,5.241,5.241,0,0,1-1.71-1.7,7.262,7.262,0,0,1-.96-2.34,12.1,12.1,0,0,1-.28-2.6,12.986,12.986,0,0,1,.28-2.71,7.741,7.741,0,0,1,.94-2.38,5,5,0,0,1,1.73-1.69,5.1,5.1,0,0,1,2.7-.65,4.2,4.2,0,0,1,3.06,1.09,4.642,4.642,0,0,1,1.26,3.05h3.09a6.487,6.487,0,0,0-2.3-4.81,8.106,8.106,0,0,0-5.11-1.57,9.671,9.671,0,0,0-3.91.74,7.952,7.952,0,0,0-2.81,2.05,9.071,9.071,0,0,0-1.71,3.12,12.789,12.789,0,0,0-.57,3.89,11.861,11.861,0,0,0,.57,3.76,8.1,8.1,0,0,0,1.7,2.93,7.634,7.634,0,0,0,2.75,1.91,9.727,9.727,0,0,0,3.8.68,10.424,10.424,0,0,0,2.9-.39,6.993,6.993,0,0,0,2.37-1.21,6.1,6.1,0,0,0,1.66-2.03,7.388,7.388,0,0,0,.74-2.85h0Zm19.07-6.91a8.1,8.1,0,0,0-1.71-2.97,7.653,7.653,0,0,0-2.79-1.92,10.818,10.818,0,0,0-7.63.01,8.084,8.084,0,0,0-2.84,1.95,8.641,8.641,0,0,0-1.76,2.97,11.184,11.184,0,0,0-.62,3.78,11.705,11.705,0,0,0,.6,3.81,8.786,8.786,0,0,0,1.73,3.05,7.931,7.931,0,0,0,2.81,1.99,9.684,9.684,0,0,0,3.85.72,9.237,9.237,0,0,0,3.78-.73,8.183,8.183,0,0,0,2.82-2.04,8.806,8.806,0,0,0,1.75-3.04A12.568,12.568,0,0,0,1228.03,2050.23Zm-3.07,6.45a7.993,7.993,0,0,1-.99,2.4,5.518,5.518,0,0,1-1.75,1.75,4.685,4.685,0,0,1-2.57.67,4.779,4.779,0,0,1-2.61-.67,5.3,5.3,0,0,1-1.73-1.73,7.738,7.738,0,0,1-.97-2.38,11.353,11.353,0,0,1-.31-2.65,10.92,10.92,0,0,1,.31-2.62,7.131,7.131,0,0,1,.97-2.29,4.981,4.981,0,0,1,1.75-1.63,5.8,5.8,0,0,1,5.18,0,5.067,5.067,0,0,1,1.75,1.63,7.36,7.36,0,0,1,.97,2.29,11.443,11.443,0,0,1,.3,2.62A11.749,11.749,0,0,1,1224.96,2056.68Zm22.62,6.55c-0.04-1.59-.07-3.15-0.07-4.7v-13.48h-3.17v9.61a10.815,10.815,0,0,1-.25,2.39,6.169,6.169,0,0,1-.83,2.04,4.1,4.1,0,0,1-1.53,1.42,4.889,4.889,0,0,1-2.39.52,4.675,4.675,0,0,1-2.29-.47,3.049,3.049,0,0,1-1.27-1.27,4.975,4.975,0,0,1-.54-1.89,20.675,20.675,0,0,1-.11-2.27v-10.08h-3.17v11.3a11.931,11.931,0,0,0,.34,3.01,5.588,5.588,0,0,0,1.12,2.23,4.873,4.873,0,0,0,2.01,1.39,8.783,8.783,0,0,0,3.05.46,6.843,6.843,0,0,0,3.34-.75,7.884,7.884,0,0,0,2.52-2.34l0.15,2.88h3.09Zm20.27,0v-11.31a8.267,8.267,0,0,0-1.46-5.22c-0.97-1.24-2.64-1.87-5.02-1.87a6.972,6.972,0,0,0-3.4.78,7.583,7.583,0,0,0-2.54,2.35l-0.11-2.91h-3.13c0,0.26.01,0.58,0.02,0.95s0.02,0.77.04,1.19,0.02,0.85.03,1.3,0.02,0.85.02,1.24v13.5h3.17v-9.07a14.119,14.119,0,0,1,.23-2.51,7.243,7.243,0,0,1,.79-2.21,4.325,4.325,0,0,1,3.98-2.2,4.662,4.662,0,0,1,2.29.49,3.264,3.264,0,0,1,1.28,1.3,5.313,5.313,0,0,1,.54,1.87c0.07,0.71.1,1.46,0.1,2.25v10.08h3.17Zm13.21-.04v-2.41c-0.31.05-.6,0.09-0.86,0.13a7.26,7.26,0,0,1-.83.05,4.2,4.2,0,0,1-1.31-.16,1.506,1.506,0,0,1-.76-0.52,1.984,1.984,0,0,1-.34-0.94,11.131,11.131,0,0,1-.07-1.4v-10.7h4.07v-2.19h-4.07v-4.86l-3.17,1.33v3.53h-3.56v2.19h3.56v11.96a4.088,4.088,0,0,0,1.12,3.24,4.935,4.935,0,0,0,3.31.97,19.692,19.692,0,0,0,2.91-.22h0Z" transform="translate(-722 -1328)"/>
  </g>
</svg>
