<svg xmlns="http://www.w3.org/2000/svg" width="600" height="1200" viewBox="0 0 600 1200">
  <defs>
    <style>
      .cls-1 {
        fill: #fff;
        fill-rule: evenodd;
      }
    </style>
  </defs>
  <g id="International_Engage_Banner_300x600_Frame_2" data-name="International Engage Banner 300x600 Frame 2">
    <path id="We_make_it_simple_and_easy_for_everyone_to_open_a_bank_account_copy" data-name="We make it simple and easy for everyone to open a bank account  copy" class="cls-1" d="M780.971,2093.43a8.2,8.2,0,0,0-1.714-2.97,7.6,7.6,0,0,0-2.795-1.92,10.815,10.815,0,0,0-7.629.01A8.065,8.065,0,0,0,766,2090.5a8.487,8.487,0,0,0-1.767,2.97,11.209,11.209,0,0,0-.613,3.78,11.786,11.786,0,0,0,.6,3.81,8.788,8.788,0,0,0,1.731,3.05,7.858,7.858,0,0,0,2.814,1.99,9.661,9.661,0,0,0,3.842.72,9.269,9.269,0,0,0,3.788-.73,8.184,8.184,0,0,0,2.813-2.04,8.759,8.759,0,0,0,1.75-3.04,11.594,11.594,0,0,0,.6-3.76A12.008,12.008,0,0,0,780.971,2093.43Zm-3.077,6.45a7.7,7.7,0,0,1-.99,2.4,5.486,5.486,0,0,1-1.746,1.75,4.7,4.7,0,0,1-2.574.67,4.769,4.769,0,0,1-2.61-.67,5.349,5.349,0,0,1-1.728-1.73,7.741,7.741,0,0,1-.972-2.38,11.677,11.677,0,0,1-.306-2.65,11.229,11.229,0,0,1,.306-2.62,7.134,7.134,0,0,1,.972-2.29,5,5,0,0,1,1.746-1.63,5.812,5.812,0,0,1,5.184,0,5,5,0,0,1,1.746,1.63,7.134,7.134,0,0,1,.972,2.29,11.229,11.229,0,0,1,.306,2.62A11.529,11.529,0,0,1,777.894,2099.88Zm22.662,6.55v-11.31a8.317,8.317,0,0,0-1.458-5.22c-0.972-1.24-2.646-1.87-5.022-1.87a6.975,6.975,0,0,0-3.4.78,7.541,7.541,0,0,0-2.538,2.35l-0.108-2.91H784.9c0,0.26.006,0.58,0.018,0.95s0.024,0.77.036,1.19,0.024,0.85.036,1.3,0.018,0.85.018,1.24v13.5h3.168v-9.07a13.586,13.586,0,0,1,.234-2.51,7.091,7.091,0,0,1,.792-2.21,4.4,4.4,0,0,1,1.53-1.58,4.5,4.5,0,0,1,2.448-.62,4.629,4.629,0,0,1,2.286.49,3.221,3.221,0,0,1,1.278,1.3,5,5,0,0,1,.54,1.87,22.327,22.327,0,0,1,.108,2.25v10.08h3.168Zm7.884,0V2080.4h-3.168v26.03h3.168Zm8.172-22.83v-3.2h-3.528v3.2h3.528Zm-0.18,22.83v-18.18h-3.168v18.18h3.168Zm20.376,0v-11.31a8.317,8.317,0,0,0-1.458-5.22c-0.972-1.24-2.646-1.87-5.022-1.87a6.975,6.975,0,0,0-3.4.78,7.541,7.541,0,0,0-2.538,2.35l-0.108-2.91h-3.132c0,0.26.006,0.58,0.018,0.95s0.024,0.77.036,1.19,0.024,0.85.036,1.3,0.018,0.85.018,1.24v13.5h3.168v-9.07a13.586,13.586,0,0,1,.234-2.51,7.091,7.091,0,0,1,.792-2.21,4.4,4.4,0,0,1,1.53-1.58,4.5,4.5,0,0,1,2.448-.62,4.629,4.629,0,0,1,2.286.49,3.221,3.221,0,0,1,1.278,1.3,5,5,0,0,1,.54,1.87,22.327,22.327,0,0,1,.108,2.25v10.08h3.168Zm19.836-8.5a19.39,19.39,0,0,0-.36-3.78,8.835,8.835,0,0,0-1.26-3.18,6.731,6.731,0,0,0-2.412-2.19,7.82,7.82,0,0,0-3.78-.82,9.1,9.1,0,0,0-3.852.75,7.563,7.563,0,0,0-2.682,2.07,8.777,8.777,0,0,0-1.584,3.07,13.412,13.412,0,0,0-.522,3.81,12.457,12.457,0,0,0,.522,3.7,8.027,8.027,0,0,0,1.566,2.91,6.857,6.857,0,0,0,2.61,1.89,9.456,9.456,0,0,0,3.69.66,8.859,8.859,0,0,0,5.256-1.53,6.88,6.88,0,0,0,2.7-4.73h-3.024A4.87,4.87,0,0,1,852,2103.6a4.575,4.575,0,0,1-3.168,1.1,5.187,5.187,0,0,1-2.394-.52,4.936,4.936,0,0,1-1.71-1.42,6.359,6.359,0,0,1-1.026-2.06,8.377,8.377,0,0,1-.342-2.41v-0.36h13.284Zm-13.212-2.12a8.715,8.715,0,0,1,.486-2.15,6.467,6.467,0,0,1,1.026-1.84,4.643,4.643,0,0,1,1.584-1.27,4.88,4.88,0,0,1,2.2-.47,4.561,4.561,0,0,1,2.142.49,4.392,4.392,0,0,1,1.512,1.27,5.1,5.1,0,0,1,.864,1.82,8.5,8.5,0,0,1,.27,2.15h-10.08Zm53-7.56h-3.168l-4.644,14.72-4.9-14.72h-3.636l-5,14.9-4.68-14.9h-3.528l6.444,18.18h3.24l5.184-15.05,5.076,15.05h3.132Zm18,18.18v-11.31a11.936,11.936,0,0,0-.342-3,5.543,5.543,0,0,0-1.116-2.23,4.919,4.919,0,0,0-2.016-1.41,8.472,8.472,0,0,0-3.042-.48,6.893,6.893,0,0,0-3.366.77,7.424,7.424,0,0,0-2.5,2.32V2080.4h-3.168v26.03h3.168v-9.61a10.639,10.639,0,0,1,.27-2.4,6.092,6.092,0,0,1,.864-2.05,4.5,4.5,0,0,1,1.548-1.42,5.462,5.462,0,0,1,4.608-.06,3.283,3.283,0,0,1,1.278,1.3,5.048,5.048,0,0,1,.54,1.89c0.072,0.72.108,1.48,0.108,2.27v10.08h3.168Zm19.836-8.5a19.39,19.39,0,0,0-.36-3.78,8.835,8.835,0,0,0-1.26-3.18,6.731,6.731,0,0,0-2.412-2.19,7.82,7.82,0,0,0-3.78-.82,9.1,9.1,0,0,0-3.852.75,7.563,7.563,0,0,0-2.682,2.07,8.777,8.777,0,0,0-1.584,3.07,13.412,13.412,0,0,0-.522,3.81,12.457,12.457,0,0,0,.522,3.7,8.027,8.027,0,0,0,1.566,2.91,6.857,6.857,0,0,0,2.61,1.89,9.456,9.456,0,0,0,3.69.66,8.859,8.859,0,0,0,5.256-1.53,6.88,6.88,0,0,0,2.7-4.73h-3.024a4.87,4.87,0,0,1-1.512,3.04,4.575,4.575,0,0,1-3.168,1.1,5.187,5.187,0,0,1-2.394-.52,4.936,4.936,0,0,1-1.71-1.42,6.359,6.359,0,0,1-1.026-2.06,8.377,8.377,0,0,1-.342-2.41v-0.36h13.284Zm-13.212-2.12a8.715,8.715,0,0,1,.486-2.15,6.467,6.467,0,0,1,1.026-1.84,4.643,4.643,0,0,1,1.584-1.27,4.88,4.88,0,0,1,2.2-.47,4.561,4.561,0,0,1,2.142.49,4.392,4.392,0,0,1,1.512,1.27,5.1,5.1,0,0,1,.864,1.82,8.5,8.5,0,0,1,.27,2.15h-10.08Zm25.2,10.58v-2.41c-0.312.05-.6,0.09-0.864,0.13a7.309,7.309,0,0,1-.828.05,4.235,4.235,0,0,1-1.314-.16,1.521,1.521,0,0,1-.756-0.52,1.964,1.964,0,0,1-.342-0.94,11.478,11.478,0,0,1-.072-1.4v-10.7h4.068v-2.19h-4.068v-4.86l-3.168,1.33v3.53h-3.564v2.19h3.564v11.96a4.108,4.108,0,0,0,1.116,3.24,4.959,4.959,0,0,0,3.312.97,19.791,19.791,0,0,0,2.916-.22h0Zm18.36,0.04v-11.31a11.936,11.936,0,0,0-.342-3,5.543,5.543,0,0,0-1.116-2.23,4.919,4.919,0,0,0-2.016-1.41,8.472,8.472,0,0,0-3.042-.48,6.893,6.893,0,0,0-3.366.77,7.424,7.424,0,0,0-2.5,2.32V2080.4h-3.168v26.03h3.168v-9.61a10.639,10.639,0,0,1,.27-2.4,6.092,6.092,0,0,1,.864-2.05,4.5,4.5,0,0,1,1.548-1.42,5.462,5.462,0,0,1,4.608-.06,3.283,3.283,0,0,1,1.278,1.3,5.048,5.048,0,0,1,.54,1.89c0.072,0.72.108,1.48,0.108,2.27v10.08h3.168Zm19.836-8.5a19.39,19.39,0,0,0-.36-3.78,8.835,8.835,0,0,0-1.26-3.18,6.731,6.731,0,0,0-2.412-2.19,7.82,7.82,0,0,0-3.78-.82,9.1,9.1,0,0,0-3.852.75,7.563,7.563,0,0,0-2.682,2.07,8.777,8.777,0,0,0-1.584,3.07,13.412,13.412,0,0,0-.522,3.81,12.457,12.457,0,0,0,.522,3.7,8.027,8.027,0,0,0,1.566,2.91,6.857,6.857,0,0,0,2.61,1.89,9.456,9.456,0,0,0,3.69.66,8.859,8.859,0,0,0,5.256-1.53,6.88,6.88,0,0,0,2.7-4.73h-3.024a4.87,4.87,0,0,1-1.512,3.04,4.575,4.575,0,0,1-3.168,1.1,5.187,5.187,0,0,1-2.394-.52,4.936,4.936,0,0,1-1.71-1.42,6.359,6.359,0,0,1-1.026-2.06,8.377,8.377,0,0,1-.342-2.41v-0.36h13.284Zm-13.212-2.12a8.715,8.715,0,0,1,.486-2.15,6.467,6.467,0,0,1,1.026-1.84,4.643,4.643,0,0,1,1.584-1.27,4.88,4.88,0,0,1,2.2-.47,4.561,4.561,0,0,1,2.142.49,4.392,4.392,0,0,1,1.512,1.27,5.1,5.1,0,0,1,.864,1.82,8.5,8.5,0,0,1,.27,2.15h-10.08Zm26.388-4.61v-2.99c-0.144-.02-0.306-0.04-0.486-0.05s-0.354-.02-0.522-0.02a6.877,6.877,0,0,0-3.222.7,5.986,5.986,0,0,0-2.322,2.32l-0.144-2.91h-3.1c0.072,1.77.108,3.55,0.108,5.33v12.85h3.168v-9.79a6.869,6.869,0,0,1,1.08-4.09c0.72-1,2.016-1.49,3.888-1.49q0.4,0,.792.03c0.264,0.03.516,0.06,0.756,0.11h0Zm27.147-2.95h-3.2l-5.69,14.87-5.73-14.87h-3.6l7.74,18.14-2.98,6.88h3.16Zm17.68,5.18a8.258,8.258,0,0,0-1.72-2.97,7.653,7.653,0,0,0-2.79-1.92,10.818,10.818,0,0,0-7.63.01,8.084,8.084,0,0,0-2.84,1.95,8.641,8.641,0,0,0-1.76,2.97,11.184,11.184,0,0,0-.62,3.78,11.705,11.705,0,0,0,.6,3.81,8.786,8.786,0,0,0,1.73,3.05,7.931,7.931,0,0,0,2.81,1.99,9.684,9.684,0,0,0,3.85.72,9.237,9.237,0,0,0,3.78-.73,8.183,8.183,0,0,0,2.82-2.04,8.806,8.806,0,0,0,1.75-3.04,11.757,11.757,0,0,0,.59-3.76A12.153,12.153,0,0,0,1042.45,2093.43Zm-3.08,6.45a7.993,7.993,0,0,1-.99,2.4,5.518,5.518,0,0,1-1.75,1.75,4.685,4.685,0,0,1-2.57.67,4.779,4.779,0,0,1-2.61-.67,5.3,5.3,0,0,1-1.73-1.73,7.738,7.738,0,0,1-.97-2.38,11.353,11.353,0,0,1-.31-2.65,10.92,10.92,0,0,1,.31-2.62,7.131,7.131,0,0,1,.97-2.29,4.981,4.981,0,0,1,1.75-1.63,5.8,5.8,0,0,1,5.18,0,5.067,5.067,0,0,1,1.75,1.63,7.36,7.36,0,0,1,.97,2.29,11.443,11.443,0,0,1,.3,2.62A11.749,11.749,0,0,1,1039.37,2099.88Zm22.62,6.55c-0.04-1.59-.07-3.15-0.07-4.7v-13.48h-3.17v9.61a10.815,10.815,0,0,1-.25,2.39,6.169,6.169,0,0,1-.83,2.04,4.1,4.1,0,0,1-1.53,1.42,4.889,4.889,0,0,1-2.39.52,4.675,4.675,0,0,1-2.29-.47,3.049,3.049,0,0,1-1.27-1.27,4.975,4.975,0,0,1-.54-1.89,20.675,20.675,0,0,1-.11-2.27v-10.08h-3.17v11.3a11.931,11.931,0,0,0,.34,3.01,5.588,5.588,0,0,0,1.12,2.23,4.873,4.873,0,0,0,2.01,1.39,8.783,8.783,0,0,0,3.05.46,6.843,6.843,0,0,0,3.34-.75,7.884,7.884,0,0,0,2.52-2.34l0.15,2.88h3.09Zm9.9-26.03h-3.63l-1.77,7.63h2.56Zm14.3,10.8v-2.99c-0.15-.02-0.31-0.04-0.49-0.05s-0.35-.02-0.52-0.02a6.863,6.863,0,0,0-3.22.7,6.016,6.016,0,0,0-2.33,2.32l-0.14-2.91h-3.1c0.08,1.77.11,3.55,0.11,5.33v12.85h3.17v-9.79a6.869,6.869,0,0,1,1.08-4.09c0.72-1,2.02-1.49,3.89-1.49,0.26,0,.53.01,0.79,0.03s0.52,0.06.76,0.11h0Zm17.42,6.73a19.39,19.39,0,0,0-.36-3.78,8.835,8.835,0,0,0-1.26-3.18,6.709,6.709,0,0,0-2.41-2.19,7.831,7.831,0,0,0-3.78-.82,9.087,9.087,0,0,0-3.85.75,7.61,7.61,0,0,0-2.69,2.07,8.94,8.94,0,0,0-1.58,3.07,13.342,13.342,0,0,0-.52,3.81,12.393,12.393,0,0,0,.52,3.7,8,8,0,0,0,1.57,2.91,6.766,6.766,0,0,0,2.61,1.89,9.429,9.429,0,0,0,3.69.66,8.848,8.848,0,0,0,5.25-1.53,6.88,6.88,0,0,0,2.7-4.73h-3.02a4.888,4.888,0,0,1-1.51,3.04,4.6,4.6,0,0,1-3.17,1.1,5.236,5.236,0,0,1-2.4-.52,5.01,5.01,0,0,1-1.71-1.42,6.511,6.511,0,0,1-1.02-2.06,8.308,8.308,0,0,1-.34-2.41v-0.36h13.28Zm-13.21-2.12a8.705,8.705,0,0,1,.48-2.15,6.728,6.728,0,0,1,1.03-1.84,4.648,4.648,0,0,1,1.58-1.27,4.916,4.916,0,0,1,2.2-.47,4.536,4.536,0,0,1,2.14.49,4.348,4.348,0,0,1,1.51,1.27,5.039,5.039,0,0,1,.87,1.82,8.5,8.5,0,0,1,.27,2.15H1090.4Zm29.16-12.21v-3.2h-3.53v3.2h3.53Zm-0.18,22.83v-18.18h-3.17v18.18h3.17Zm20.38,0v-11.31a8.33,8.33,0,0,0-1.46-5.22c-0.97-1.24-2.65-1.87-5.02-1.87a6.945,6.945,0,0,0-3.4.78,7.491,7.491,0,0,0-2.54,2.35l-0.11-2.91h-3.13c0,0.26,0,.58.02,0.95s0.02,0.77.03,1.19,0.03,0.85.04,1.3,0.02,0.85.02,1.24v13.5h3.16v-9.07a13.257,13.257,0,0,1,.24-2.51,6.989,6.989,0,0,1,.79-2.21,4.369,4.369,0,0,1,1.53-1.58,4.5,4.5,0,0,1,2.45-.62,4.594,4.594,0,0,1,2.28.49,3.2,3.2,0,0,1,1.28,1.3,4.926,4.926,0,0,1,.54,1.87c0.07,0.71.11,1.46,0.11,2.25v10.08h3.17Zm22.32-.04v-2.41c-0.31.05-.6,0.09-0.86,0.13a7.4,7.4,0,0,1-.83.05,4.312,4.312,0,0,1-1.32-.16,1.521,1.521,0,0,1-.75-0.52,1.884,1.884,0,0,1-.34-0.94,10.918,10.918,0,0,1-.08-1.4v-10.7h4.07v-2.19h-4.07v-4.86l-3.16,1.33v3.53h-3.57v2.19h3.57v11.96a4.121,4.121,0,0,0,1.11,3.24,4.971,4.971,0,0,0,3.31.97,19.824,19.824,0,0,0,2.92-.22h0Zm18.36,0.04v-11.31a11.85,11.85,0,0,0-.34-3,5.523,5.523,0,0,0-1.12-2.23,4.911,4.911,0,0,0-2.01-1.41,8.526,8.526,0,0,0-3.05-.48,6.891,6.891,0,0,0-3.36.77,7.4,7.4,0,0,0-2.5,2.32V2080.4h-3.17v26.03h3.17v-9.61a10.639,10.639,0,0,1,.27-2.4,6.007,6.007,0,0,1,.86-2.05,4.5,4.5,0,0,1,1.55-1.42,5.467,5.467,0,0,1,4.61-.06,3.236,3.236,0,0,1,1.27,1.3,4.975,4.975,0,0,1,.54,1.89,20.675,20.675,0,0,1,.11,2.27v10.08h3.17Zm19.84-8.5a19.39,19.39,0,0,0-.36-3.78,8.835,8.835,0,0,0-1.26-3.18,6.74,6.74,0,0,0-2.42-2.19,7.777,7.777,0,0,0-3.78-.82,9.118,9.118,0,0,0-3.85.75,7.573,7.573,0,0,0-2.68,2.07,8.606,8.606,0,0,0-1.58,3.07,13.339,13.339,0,0,0-.53,3.81,12.388,12.388,0,0,0,.53,3.7,7.986,7.986,0,0,0,1.56,2.91,6.919,6.919,0,0,0,2.61,1.89,9.5,9.5,0,0,0,3.69.66,8.859,8.859,0,0,0,5.26-1.53,6.88,6.88,0,0,0,2.7-4.73h-3.03a4.838,4.838,0,0,1-1.51,3.04,4.563,4.563,0,0,1-3.17,1.1,5.164,5.164,0,0,1-2.39-.52,5.01,5.01,0,0,1-1.71-1.42,6.327,6.327,0,0,1-1.03-2.06,8.663,8.663,0,0,1-.34-2.41v-0.36h13.29Zm-13.22-2.12a9.2,9.2,0,0,1,.49-2.15,6.244,6.244,0,0,1,1.03-1.84,4.648,4.648,0,0,1,1.58-1.27,4.886,4.886,0,0,1,2.2-.47,4.565,4.565,0,0,1,2.14.49,4.441,4.441,0,0,1,1.51,1.27,5.023,5.023,0,0,1,.86,1.82,8.5,8.5,0,0,1,.27,2.15h-10.08Zm46.95,0.68V2080.4h-3.42v15.48c0,0.77-.03,1.54-0.09,2.32a6.767,6.767,0,0,1-.56,2.25,5.5,5.5,0,0,1-2.57,2.85,8.084,8.084,0,0,1-3.76.9,8.7,8.7,0,0,1-3.31-.67,5.365,5.365,0,0,1-2.56-2.14,5.922,5.922,0,0,1-.94-2.63c-0.09-.94-0.14-1.87-0.14-2.81V2080.4h-3.53v16.02q0,5.37,2.61,7.92c1.74,1.7,4.35,2.56,7.83,2.56q5.04,0,7.74-2.69c1.8-1.78,2.7-4.36,2.7-7.72h0Zm27,9.94-10.98-26.03h-3.71l-10.58,26.03h3.42l2.66-6.88h12.6l2.7,6.88h3.89Zm-7.63-9.4h-10.62l5.22-13.68Zm26.89,9.4v-2.63h-13.28v-9.5h12.24v-2.63h-12.24v-8.64h12.78v-2.63h-16.13v26.03h16.63Z" transform="translate(-722 -1328)"/>
  </g>
</svg>
