<svg xmlns="http://www.w3.org/2000/svg" width="600" height="1200" viewBox="0 0 600 1200">
  <defs>
    <style>
      .cls-1 {
        fill: #fff;
        fill-rule: evenodd;
      }
    </style>
  </defs>
  <g id="International_Engage_Banner_300x600_Frame_2" data-name="International Engage Banner 300x600 Frame 2">
    <path id="We_make_it_simple_and_easy_for_everyone_to_open_a_bank_account_" data-name="We make it simple and easy for everyone to open a bank account " class="cls-1" d="M780.971,2136.63a8.2,8.2,0,0,0-1.714-2.97,7.6,7.6,0,0,0-2.795-1.92,10.815,10.815,0,0,0-7.629.01A8.065,8.065,0,0,0,766,2133.7a8.487,8.487,0,0,0-1.767,2.97,11.209,11.209,0,0,0-.613,3.78,11.786,11.786,0,0,0,.6,3.81,8.788,8.788,0,0,0,1.731,3.05,7.858,7.858,0,0,0,2.814,1.99,9.661,9.661,0,0,0,3.842.72,9.269,9.269,0,0,0,3.788-.73,8.184,8.184,0,0,0,2.813-2.04,8.759,8.759,0,0,0,1.75-3.04,11.594,11.594,0,0,0,.6-3.76A12.008,12.008,0,0,0,780.971,2136.63Zm-3.077,6.45a7.7,7.7,0,0,1-.99,2.4,5.486,5.486,0,0,1-1.746,1.75,4.7,4.7,0,0,1-2.574.67,4.769,4.769,0,0,1-2.61-.67,5.349,5.349,0,0,1-1.728-1.73,7.741,7.741,0,0,1-.972-2.38,11.677,11.677,0,0,1-.306-2.65,11.229,11.229,0,0,1,.306-2.62,7.134,7.134,0,0,1,.972-2.29,5,5,0,0,1,1.746-1.63,5.812,5.812,0,0,1,5.184,0,5,5,0,0,1,1.746,1.63,7.134,7.134,0,0,1,.972,2.29,11.229,11.229,0,0,1,.306,2.62A11.529,11.529,0,0,1,777.894,2143.08Zm16.794-8.68v-2.99c-0.144-.02-0.306-0.04-0.486-0.05s-0.354-.02-0.522-0.02a6.877,6.877,0,0,0-3.222.7,5.986,5.986,0,0,0-2.322,2.32l-0.144-2.91h-3.1c0.072,1.77.108,3.55,0.108,5.33v12.85h3.168v-9.79a6.869,6.869,0,0,1,1.08-4.09c0.72-1,2.016-1.49,3.888-1.49q0.4,0,.792.03c0.264,0.03.516,0.06,0.756,0.11h0Zm23.791,15.23a15.994,15.994,0,0,1-.378-2.07,24.368,24.368,0,0,1-.2-3.26v-6.7q0-3.555-1.71-5.04a7.824,7.824,0,0,0-5.2-1.47,11.177,11.177,0,0,0-2.484.27,6.414,6.414,0,0,0-2.124.88,4.871,4.871,0,0,0-1.53,1.62,5.336,5.336,0,0,0-.666,2.48h3.1a3.355,3.355,0,0,1,1.134-2.5,4.374,4.374,0,0,1,2.646-.7,3.692,3.692,0,0,1,3.114,1.15,5.236,5.236,0,0,1,.882,3.24v1.08c-0.264-.02-0.546-0.04-0.846-0.05s-0.618-.02-0.954-0.02q-1.656,0-3.492.18a11.826,11.826,0,0,0-3.366.81,6.4,6.4,0,0,0-2.538,1.84,4.905,4.905,0,0,0-1.008,3.25,5.231,5.231,0,0,0,.522,2.42,4.845,4.845,0,0,0,1.4,1.67,6.216,6.216,0,0,0,2.034.99,8.713,8.713,0,0,0,2.412.32,8.837,8.837,0,0,0,3.492-.64,6.353,6.353,0,0,0,2.664-2.31c0.024,0.39.066,0.81,0.126,1.28s0.126,0.89.2,1.28h2.772Zm-3.564-6.41a6.975,6.975,0,0,1-.666,2.38,4.178,4.178,0,0,1-1.512,1.67,5.842,5.842,0,0,1-4.23.41,3.955,3.955,0,0,1-1.278-.64,3.135,3.135,0,0,1-.882-1.08,3.3,3.3,0,0,1-.324-1.48,3.058,3.058,0,0,1,.756-2.2,4.888,4.888,0,0,1,1.89-1.2,9.07,9.07,0,0,1,2.43-.52c0.864-.08,1.644-0.11,2.34-0.11h0.72a7.235,7.235,0,0,1,.9.07A25.159,25.159,0,0,1,814.915,2143.22Zm24.5-6.41a8.644,8.644,0,0,0-1.39-2.91,6.864,6.864,0,0,0-2.4-2.02,8.23,8.23,0,0,0-7.056.07,6.743,6.743,0,0,0-2.563,2.63l-0.108-3.13h-3.132q0.072,1.29.09,2.61c0.012,0.87.018,1.73,0.018,2.57v19.84h3.168v-9.58a8.568,8.568,0,0,0,2.454,2.31,6.5,6.5,0,0,0,3.285.75,7.254,7.254,0,0,0,3.573-.83,7.711,7.711,0,0,0,2.526-2.17,9.323,9.323,0,0,0,1.5-3.1A13.435,13.435,0,0,0,839.412,2136.81Zm-3.167,6.27a7.287,7.287,0,0,1-.9,2.32,5.081,5.081,0,0,1-1.674,1.67,4.848,4.848,0,0,1-2.592.65,4.339,4.339,0,0,1-2.448-.65,4.99,4.99,0,0,1-1.566-1.67,7.135,7.135,0,0,1-.828-2.31,13.8,13.8,0,0,1-.234-2.5,11.9,11.9,0,0,1,.288-2.59,7.505,7.505,0,0,1,.918-2.32,5.11,5.11,0,0,1,1.674-1.68,4.773,4.773,0,0,1,2.556-.64,4.283,4.283,0,0,1,2.43.66,5,5,0,0,1,1.566,1.69,7.822,7.822,0,0,1,.828,2.29A12.493,12.493,0,0,1,836.245,2143.08Zm23.615-6.27a8.644,8.644,0,0,0-1.39-2.91,6.864,6.864,0,0,0-2.4-2.02,8.23,8.23,0,0,0-7.056.07,6.743,6.743,0,0,0-2.563,2.63l-0.108-3.13h-3.132q0.072,1.29.09,2.61c0.012,0.87.018,1.73,0.018,2.57v19.84h3.168v-9.58a8.568,8.568,0,0,0,2.454,2.31,6.5,6.5,0,0,0,3.285.75,7.254,7.254,0,0,0,3.573-.83,7.711,7.711,0,0,0,2.526-2.17,9.323,9.323,0,0,0,1.5-3.1A13.435,13.435,0,0,0,859.86,2136.81Zm-3.167,6.27a7.287,7.287,0,0,1-.9,2.32,5.081,5.081,0,0,1-1.674,1.67,4.848,4.848,0,0,1-2.592.65,4.339,4.339,0,0,1-2.448-.65,4.99,4.99,0,0,1-1.566-1.67,7.135,7.135,0,0,1-.828-2.31,13.8,13.8,0,0,1-.234-2.5,11.9,11.9,0,0,1,.288-2.59,7.505,7.505,0,0,1,.918-2.32,5.11,5.11,0,0,1,1.674-1.68,4.773,4.773,0,0,1,2.556-.64,4.283,4.283,0,0,1,2.43.66,5,5,0,0,1,1.566,1.69,7.822,7.822,0,0,1,.828,2.29A12.493,12.493,0,0,1,856.693,2143.08Zm10.242,6.55V2123.6h-3.168v26.03h3.168Zm20.556-18.18h-3.2l-5.688,14.87-5.724-14.87h-3.6l7.74,18.14-2.988,6.88H877.2Zm5.58-4.65v-3.2h-3.528v3.2h3.528Zm-0.18,22.83v-18.18h-3.168v18.18h3.168Zm20.376,0v-11.31a8.317,8.317,0,0,0-1.458-5.22c-0.972-1.24-2.646-1.87-5.022-1.87a6.975,6.975,0,0,0-3.4.78,7.541,7.541,0,0,0-2.538,2.35l-0.108-2.91h-3.132c0,0.26.006,0.58,0.018,0.95s0.024,0.77.036,1.19,0.024,0.85.036,1.3,0.018,0.85.018,1.24v13.5h3.168v-9.07a13.586,13.586,0,0,1,.234-2.51,7.091,7.091,0,0,1,.792-2.21,4.4,4.4,0,0,1,1.53-1.58,4.5,4.5,0,0,1,2.448-.62,4.629,4.629,0,0,1,2.286.49,3.221,3.221,0,0,1,1.278,1.3,5,5,0,0,1,.54,1.87,22.327,22.327,0,0,1,.108,2.25v10.08h3.168Zm17.5-18.18v3.09a6.668,6.668,0,0,0-6.156-3.42,7.649,7.649,0,0,0-3.474.76,7.183,7.183,0,0,0-2.484,2.03,9.088,9.088,0,0,0-1.494,2.94,11.744,11.744,0,0,0-.5,3.45,12.7,12.7,0,0,0,.486,3.55,8.361,8.361,0,0,0,1.476,2.92,7.113,7.113,0,0,0,2.484,1.96,8.094,8.094,0,0,0,3.546.72,6.745,6.745,0,0,0,6.012-3.21v1.52q0,0.75-.072,1.47a10.267,10.267,0,0,1-.432,2.28,4.976,4.976,0,0,1-.936,1.74,3.791,3.791,0,0,1-1.584,1.11,6.735,6.735,0,0,1-2.412.38,7.92,7.92,0,0,1-1.62-.16,3.991,3.991,0,0,1-1.4-.57,3.06,3.06,0,0,1-.99-1.05,3.267,3.267,0,0,1-.378-1.64h-3.1a5.168,5.168,0,0,0,.664,2.74,4.875,4.875,0,0,0,1.724,1.69,7.551,7.551,0,0,0,2.407.86,14.543,14.543,0,0,0,2.712.25,9.994,9.994,0,0,0,4.813-.95,5.99,5.99,0,0,0,2.55-2.63,10.683,10.683,0,0,0,1.006-3.92c0.12-1.5.18-3.13,0.18-4.88v-6.73q0-1.59.018-3.15t0.126-3.15h-3.168Zm-0.343,11.27a7.533,7.533,0,0,1-.885,2.32,4.6,4.6,0,0,1-4.19,2.28,4.709,4.709,0,0,1-2.492-.61,5.03,5.03,0,0,1-1.644-1.58,6.891,6.891,0,0,1-.921-2.22,10.918,10.918,0,0,1-.289-2.5,12.071,12.071,0,0,1,.271-2.55,6.966,6.966,0,0,1,.9-2.27,5.05,5.05,0,0,1,1.662-1.64,4.794,4.794,0,0,1,2.546-.63,4.5,4.5,0,0,1,2.384.61,5.247,5.247,0,0,1,1.661,1.59,6.9,6.9,0,0,1,.958,2.19,9.893,9.893,0,0,1,.307,2.41A12.756,12.756,0,0,1,930.42,2142.72Zm24.206-16.92v-2.31c-0.912-.07-1.788-0.11-2.628-0.11a6.162,6.162,0,0,0-2.628.47,3.327,3.327,0,0,0-1.476,1.32,5.068,5.068,0,0,0-.648,2.01,20.9,20.9,0,0,0-.144,2.54v1.73h-3.636v2.19H947.1v15.99h3.168v-15.99h4.068v-2.19H950.27v-3.31a2.061,2.061,0,0,1,.81-1.95,4.283,4.283,0,0,1,2.142-.47c0.24,0,.474.01,0.7,0.02s0.462,0.03.7,0.06h0Zm12.1,8.6v-2.99c-0.144-.02-0.306-0.04-0.486-0.05s-0.354-.02-0.522-0.02a6.877,6.877,0,0,0-3.222.7,5.986,5.986,0,0,0-2.322,2.32l-0.144-2.91h-3.1c0.072,1.77.108,3.55,0.108,5.33v12.85h3.168v-9.79a6.869,6.869,0,0,1,1.08-4.09c0.72-1,2.016-1.49,3.888-1.49q0.4,0,.792.03c0.264,0.03.516,0.06,0.756,0.11h0Zm17.891,2.23a8.215,8.215,0,0,0-1.713-2.97,7.609,7.609,0,0,0-2.8-1.92,10.815,10.815,0,0,0-7.629.01,8.052,8.052,0,0,0-2.832,1.95,8.489,8.489,0,0,0-1.768,2.97,11.209,11.209,0,0,0-.613,3.78,11.786,11.786,0,0,0,.6,3.81,8.774,8.774,0,0,0,1.732,3.05,7.845,7.845,0,0,0,2.813,1.99,9.661,9.661,0,0,0,3.842.72,9.269,9.269,0,0,0,3.788-.73,8.2,8.2,0,0,0,2.814-2.04,8.772,8.772,0,0,0,1.749-3.04,11.594,11.594,0,0,0,.6-3.76A12.008,12.008,0,0,0,984.613,2136.63Zm-3.077,6.45a7.7,7.7,0,0,1-.99,2.4,5.486,5.486,0,0,1-1.746,1.75,4.7,4.7,0,0,1-2.574.67,4.769,4.769,0,0,1-2.61-.67,5.349,5.349,0,0,1-1.728-1.73,7.741,7.741,0,0,1-.972-2.38,11.677,11.677,0,0,1-.306-2.65,11.229,11.229,0,0,1,.306-2.62,7.134,7.134,0,0,1,.972-2.29,5,5,0,0,1,1.746-1.63,5.812,5.812,0,0,1,5.184,0,5,5,0,0,1,1.746,1.63,7.134,7.134,0,0,1,.972,2.29,11.229,11.229,0,0,1,.306,2.62A11.529,11.529,0,0,1,981.536,2143.08Zm34.394,6.55v-10.66a16.579,16.579,0,0,0-.27-3.08,6.347,6.347,0,0,0-.97-2.44,4.772,4.772,0,0,0-1.92-1.62,7.144,7.144,0,0,0-3.14-.6,6.558,6.558,0,0,0-6.3,3.75,5.742,5.742,0,0,0-2.23-2.88,6.642,6.642,0,0,0-3.562-.87,6.3,6.3,0,0,0-5.76,3.24l-0.108-3.02h-3.132c0.072,2.09.108,4.16,0.108,6.23v11.95h3.168v-10.08a9.017,9.017,0,0,1,.27-2.2,5.547,5.547,0,0,1,.846-1.89,4.377,4.377,0,0,1,1.476-1.31,4.314,4.314,0,0,1,2.16-.51,4.438,4.438,0,0,1,2.106.44,3.1,3.1,0,0,1,1.26,1.17,4.6,4.6,0,0,1,.608,1.72,12.882,12.882,0,0,1,.17,2.11v10.55h3.16v-10.08a10.633,10.633,0,0,1,.24-2.31,5.159,5.159,0,0,1,.77-1.87,3.831,3.831,0,0,1,1.44-1.26,4.929,4.929,0,0,1,2.27-.47,4.483,4.483,0,0,1,2.07.42,3.306,3.306,0,0,1,1.28,1.11,4.473,4.473,0,0,1,.65,1.66,11.237,11.237,0,0,1,.18,2.07v10.73h3.16Zm26.21,0a15.567,15.567,0,0,1-.38-2.07,24.684,24.684,0,0,1-.2-3.26v-6.7q0-3.555-1.71-5.04a7.814,7.814,0,0,0-5.2-1.47,11.154,11.154,0,0,0-2.48.27,6.342,6.342,0,0,0-2.13.88,4.953,4.953,0,0,0-1.53,1.62,5.2,5.2,0,0,0-.66,2.48h3.09a3.344,3.344,0,0,1,1.14-2.5,4.338,4.338,0,0,1,2.64-.7,3.67,3.67,0,0,1,3.11,1.15,5.223,5.223,0,0,1,.89,3.24v1.08c-0.27-.02-0.55-0.04-0.85-0.05s-0.62-.02-0.95-0.02c-1.11,0-2.27.06-3.49,0.18a11.8,11.8,0,0,0-3.37.81,6.388,6.388,0,0,0-2.54,1.84,4.917,4.917,0,0,0-1.01,3.25,5.206,5.206,0,0,0,.53,2.42,4.728,4.728,0,0,0,1.4,1.67,6.2,6.2,0,0,0,2.03.99,8.73,8.73,0,0,0,2.42.32,8.868,8.868,0,0,0,3.49-.64,6.344,6.344,0,0,0,2.66-2.31c0.02,0.39.07,0.81,0.13,1.28s0.12,0.89.19,1.28h2.78Zm-3.57-6.41a7.017,7.017,0,0,1-.66,2.38,4.262,4.262,0,0,1-1.51,1.67,5.07,5.07,0,0,1-2.72.63,4.969,4.969,0,0,1-1.51-.22,3.848,3.848,0,0,1-1.28-.64,2.979,2.979,0,0,1-.88-1.08,3.253,3.253,0,0,1-.33-1.48,3.034,3.034,0,0,1,.76-2.2,4.83,4.83,0,0,1,1.89-1.2,8.971,8.971,0,0,1,2.43-.52c0.86-.08,1.64-0.11,2.34-0.11h0.72a7.4,7.4,0,0,1,.9.07A24.163,24.163,0,0,1,1038.57,2143.22Zm23.51,6.41v-11.31a8.267,8.267,0,0,0-1.46-5.22c-0.97-1.24-2.64-1.87-5.02-1.87a6.972,6.972,0,0,0-3.4.78,7.491,7.491,0,0,0-2.54,2.35l-0.11-2.91h-3.13c0,0.26.01,0.58,0.02,0.95s0.02,0.77.04,1.19,0.02,0.85.03,1.3,0.02,0.85.02,1.24v13.5h3.17v-9.07a13.245,13.245,0,0,1,.23-2.51,7.243,7.243,0,0,1,.79-2.21,4.452,4.452,0,0,1,1.53-1.58,4.522,4.522,0,0,1,2.45-.62,4.662,4.662,0,0,1,2.29.49,3.264,3.264,0,0,1,1.28,1.3,5.313,5.313,0,0,1,.54,1.87c0.07,0.71.1,1.46,0.1,2.25v10.08h3.17Zm20.74-13a8.258,8.258,0,0,0-1.72-2.97,7.653,7.653,0,0,0-2.79-1.92,10.818,10.818,0,0,0-7.63.01,8.044,8.044,0,0,0-2.83,1.95,8.508,8.508,0,0,0-1.77,2.97,11.184,11.184,0,0,0-.61,3.78,11.705,11.705,0,0,0,.59,3.81,8.786,8.786,0,0,0,1.73,3.05,7.881,7.881,0,0,0,2.82,1.99,9.6,9.6,0,0,0,3.84.72,9.2,9.2,0,0,0,3.78-.73,8.183,8.183,0,0,0,2.82-2.04,8.806,8.806,0,0,0,1.75-3.04,11.757,11.757,0,0,0,.59-3.76A12.153,12.153,0,0,0,1082.82,2136.63Zm-3.08,6.45a7.993,7.993,0,0,1-.99,2.4,5.518,5.518,0,0,1-1.75,1.75,4.685,4.685,0,0,1-2.57.67,4.779,4.779,0,0,1-2.61-.67,5.3,5.3,0,0,1-1.73-1.73,7.738,7.738,0,0,1-.97-2.38,11.353,11.353,0,0,1-.31-2.65,10.92,10.92,0,0,1,.31-2.62,7.131,7.131,0,0,1,.97-2.29,4.981,4.981,0,0,1,1.75-1.63,5.8,5.8,0,0,1,5.18,0,5.067,5.067,0,0,1,1.75,1.63,7.36,7.36,0,0,1,.97,2.29,11.45,11.45,0,0,1,.31,2.62A11.769,11.769,0,0,1,1079.74,2143.08Zm15.61,6.51v-2.41c-0.32.05-.61,0.09-0.87,0.13a7.26,7.26,0,0,1-.83.05,4.2,4.2,0,0,1-1.31-.16,1.55,1.55,0,0,1-.76-0.52,1.984,1.984,0,0,1-.34-0.94,11.131,11.131,0,0,1-.07-1.4v-10.7h4.07v-2.19h-4.07v-4.86l-3.17,1.33v3.53h-3.56v2.19H1088v11.96a4.088,4.088,0,0,0,1.12,3.24,4.935,4.935,0,0,0,3.31.97,19.824,19.824,0,0,0,2.92-.22h0Zm18.36,0.04v-11.31a11.825,11.825,0,0,0-.35-3,5.638,5.638,0,0,0-1.11-2.23,4.946,4.946,0,0,0-2.02-1.41,8.468,8.468,0,0,0-3.04-.48,6.9,6.9,0,0,0-3.37.77,7.4,7.4,0,0,0-2.5,2.32V2123.6h-3.17v26.03h3.17v-9.61a10.639,10.639,0,0,1,.27-2.4,6.02,6.02,0,0,1,.87-2.05,4.471,4.471,0,0,1,1.54-1.42,5.467,5.467,0,0,1,4.61-.06,3.329,3.329,0,0,1,1.28,1.3,4.975,4.975,0,0,1,.54,1.89c0.07,0.72.11,1.48,0.11,2.27v10.08h3.17Zm19.83-8.5a19.39,19.39,0,0,0-.36-3.78,8.835,8.835,0,0,0-1.26-3.18,6.709,6.709,0,0,0-2.41-2.19,7.831,7.831,0,0,0-3.78-.82,9.087,9.087,0,0,0-3.85.75,7.485,7.485,0,0,0-2.68,2.07,8.788,8.788,0,0,0-1.59,3.07,13.342,13.342,0,0,0-.52,3.81,12.393,12.393,0,0,0,.52,3.7,8,8,0,0,0,1.57,2.91,6.766,6.766,0,0,0,2.61,1.89,9.429,9.429,0,0,0,3.69.66,8.848,8.848,0,0,0,5.25-1.53,6.88,6.88,0,0,0,2.7-4.73h-3.02a4.888,4.888,0,0,1-1.51,3.04,4.6,4.6,0,0,1-3.17,1.1,5.236,5.236,0,0,1-2.4-.52,5.01,5.01,0,0,1-1.71-1.42,6.511,6.511,0,0,1-1.02-2.06,8.308,8.308,0,0,1-.34-2.41v-0.36h13.28Zm-13.21-2.12a8.291,8.291,0,0,1,.49-2.15,6.452,6.452,0,0,1,1.02-1.84,4.648,4.648,0,0,1,1.58-1.27,4.916,4.916,0,0,1,2.2-.47,4.536,4.536,0,0,1,2.14.49,4.26,4.26,0,0,1,1.51,1.27,5.039,5.039,0,0,1,.87,1.82,8.5,8.5,0,0,1,.27,2.15h-10.08Zm26.39-4.61v-2.99c-0.15-.02-0.31-0.04-0.49-0.05s-0.35-.02-0.52-0.02a6.863,6.863,0,0,0-3.22.7,6.016,6.016,0,0,0-2.33,2.32l-0.14-2.91h-3.1c0.08,1.77.11,3.55,0.11,5.33v12.85h3.17v-9.79a6.869,6.869,0,0,1,1.08-4.09c0.72-1,2.02-1.49,3.89-1.49,0.26,0,.53.01,0.79,0.03s0.52,0.06.76,0.11h0Zm24.65,9.14-0.11-.03h-2.98a4.841,4.841,0,0,1-1.34,3.19,4.3,4.3,0,0,1-3.2,1.2,4.8,4.8,0,0,1-2.56-.65,5.441,5.441,0,0,1-1.71-1.7,7.246,7.246,0,0,1-.95-2.34,12.117,12.117,0,0,1-.29-2.6,13,13,0,0,1,.29-2.71,7.272,7.272,0,0,1,.94-2.38,4.97,4.97,0,0,1,1.72-1.69,5.1,5.1,0,0,1,2.7-.65,4.165,4.165,0,0,1,3.06,1.09,4.546,4.546,0,0,1,1.26,3.05h3.1a6.487,6.487,0,0,0-2.3-4.81,8.135,8.135,0,0,0-5.12-1.57,9.622,9.622,0,0,0-3.9.74,7.864,7.864,0,0,0-2.81,2.05,8.751,8.751,0,0,0-1.71,3.12,12.787,12.787,0,0,0-.58,3.89,11.859,11.859,0,0,0,.58,3.76,8.085,8.085,0,0,0,1.69,2.93,7.674,7.674,0,0,0,2.76,1.91,9.676,9.676,0,0,0,3.79.68,10.373,10.373,0,0,0,2.9-.39,7.136,7.136,0,0,0,2.38-1.21,6.2,6.2,0,0,0,1.65-2.03,7.215,7.215,0,0,0,.74-2.85h0Zm19.08-6.91a8.238,8.238,0,0,0-1.71-2.97,7.608,7.608,0,0,0-2.8-1.92,10.818,10.818,0,0,0-7.63.01,8.044,8.044,0,0,0-2.83,1.95,8.508,8.508,0,0,0-1.77,2.97,11.184,11.184,0,0,0-.61,3.78,11.705,11.705,0,0,0,.6,3.81,8.63,8.63,0,0,0,1.73,3.05,7.756,7.756,0,0,0,2.81,1.99,9.668,9.668,0,0,0,3.84.72,9.285,9.285,0,0,0,3.79-.73,8.144,8.144,0,0,0,2.81-2.04,8.65,8.65,0,0,0,1.75-3.04,11.488,11.488,0,0,0,.6-3.76A11.868,11.868,0,0,0,1190.45,2136.63Zm-3.08,6.45a7.51,7.51,0,0,1-.99,2.4,5.389,5.389,0,0,1-1.74,1.75,4.72,4.72,0,0,1-2.58.67,4.779,4.779,0,0,1-2.61-.67,5.364,5.364,0,0,1-1.72-1.73,7.755,7.755,0,0,1-.98-2.38,11.9,11.9,0,0,1-.3-2.65,11.443,11.443,0,0,1,.3-2.62,7.147,7.147,0,0,1,.98-2.29,4.95,4.95,0,0,1,1.74-1.63,5.825,5.825,0,0,1,5.19,0,4.95,4.95,0,0,1,1.74,1.63,6.916,6.916,0,0,1,.97,2.29,10.92,10.92,0,0,1,.31,2.62A11.206,11.206,0,0,1,1187.37,2143.08Zm22.63,6.55c-0.05-1.59-.07-3.15-0.07-4.7v-13.48h-3.17v9.61a10.815,10.815,0,0,1-.25,2.39,6.389,6.389,0,0,1-.83,2.04,4.1,4.1,0,0,1-1.53,1.42,4.915,4.915,0,0,1-2.39.52,4.649,4.649,0,0,1-2.29-.47,3.132,3.132,0,0,1-1.28-1.27,4.975,4.975,0,0,1-.54-1.89c-0.07-.72-0.11-1.48-0.11-2.27v-10.08h-3.16v11.3a11.931,11.931,0,0,0,.34,3.01,5.706,5.706,0,0,0,1.11,2.23,4.908,4.908,0,0,0,2.02,1.39,8.724,8.724,0,0,0,3.04.46,6.884,6.884,0,0,0,3.35-.75,8.1,8.1,0,0,0,2.52-2.34l0.14,2.88h3.1Zm20.27,0v-11.31a8.33,8.33,0,0,0-1.46-5.22c-0.97-1.24-2.65-1.87-5.02-1.87a6.945,6.945,0,0,0-3.4.78,7.491,7.491,0,0,0-2.54,2.35l-0.11-2.91h-3.13c0,0.26,0,.58.02,0.95s0.02,0.77.03,1.19,0.03,0.85.04,1.3,0.02,0.85.02,1.24v13.5h3.16v-9.07a13.257,13.257,0,0,1,.24-2.51,6.989,6.989,0,0,1,.79-2.21,4.369,4.369,0,0,1,1.53-1.58,4.5,4.5,0,0,1,2.45-.62,4.594,4.594,0,0,1,2.28.49,3.2,3.2,0,0,1,1.28,1.3,4.926,4.926,0,0,1,.54,1.87c0.07,0.71.11,1.46,0.11,2.25v10.08h3.17Zm13.21-.04v-2.41c-0.31.05-.6,0.09-0.86,0.13a7.4,7.4,0,0,1-.83.05,4.312,4.312,0,0,1-1.32-.16,1.521,1.521,0,0,1-.75-0.52,1.884,1.884,0,0,1-.34-0.94,10.918,10.918,0,0,1-.08-1.4v-10.7h4.07v-2.19h-4.07v-4.86l-3.16,1.33v3.53h-3.57v2.19h3.57v11.96a4.121,4.121,0,0,0,1.11,3.24,4.971,4.971,0,0,0,3.31.97,19.824,19.824,0,0,0,2.92-.22h0Zm12.49-15.19v-2.99c-0.14-.02-0.3-0.04-0.48-0.05s-0.36-.02-0.53-0.02a6.891,6.891,0,0,0-3.22.7,6,6,0,0,0-2.32,2.32l-0.14-2.91h-3.1c0.07,1.77.11,3.55,0.11,5.33v12.85h3.17v-9.79a6.869,6.869,0,0,1,1.08-4.09c0.72-1,2.01-1.49,3.88-1.49,0.27,0,.53.01,0.8,0.03s0.51,0.06.75,0.11h0Zm18.04-2.95h-3.21l-5.68,14.87-5.73-14.87h-3.6l7.74,18.14-2.99,6.88h3.17Zm4.64,18.18v-3.57h-3.63v3.57h3.63Z" transform="translate(-722 -1328)"/>
  </g>
</svg>
