<?xml version="1.0" encoding="UTF-8"?><svg id="Layer_1" xmlns="http://www.w3.org/2000/svg" viewBox="0 0 300 600"><defs><style>.cls-1{fill:none;}.cls-2{fill:#fff;}</style></defs><g><path class="cls-2" d="M38.09,327.24l-6.25,15.38h-1.47l-6.28-15.38v15.38h-1.4v-16.63h2.46l6,14.83,5.96-14.83h2.46v16.63h-1.47v-15.38Z"/><path class="cls-2" d="M51.07,340.94c-.97,1.47-2.16,1.93-3.89,1.93-2.12,0-4.05-1.06-4.05-3.4,0-3.7,4.32-3.82,7.17-3.82h.6c.02-.28,.02-.53,.02-.8,0-1.98-.78-2.99-2.83-2.99-1.49,0-2.51,.48-2.69,2.14h-1.38c.02-2.32,2.02-3.2,4.07-3.2,2.87,0,4.21,1.2,4.21,4.07v3.45c0,1.45,.07,2.85,.23,4.3h-1.29c-.05-.55-.12-1.13-.18-1.68Zm-1.26-4.3c-1.93,0-5.24,.11-5.24,2.78,0,1.61,1.4,2.44,2.87,2.44,3.31,0,3.52-2.62,3.52-5.17-.39-.02-.76-.05-1.15-.05Z"/><path class="cls-2" d="M64.18,336.07c0-2.16-.25-4-2.92-4s-3.54,2.07-3.54,4.37v6.19h-1.4v-8.32c0-1.1-.07-2.18-.07-3.29h1.38l.09,1.93c.94-1.4,2.09-2.05,3.79-2.05,3.15,0,4.07,1.75,4.07,4.62v7.11h-1.4v-6.55Z"/><path class="cls-2" d="M76.6,340.94c-.97,1.47-2.16,1.93-3.89,1.93-2.12,0-4.05-1.06-4.05-3.4,0-3.7,4.32-3.82,7.17-3.82h.6c.02-.28,.02-.53,.02-.8,0-1.98-.78-2.99-2.83-2.99-1.49,0-2.51,.48-2.69,2.14h-1.38c.02-2.32,2.02-3.2,4.07-3.2,2.87,0,4.21,1.2,4.21,4.07v3.45c0,1.45,.07,2.85,.23,4.3h-1.29c-.05-.55-.12-1.13-.18-1.68Zm-1.26-4.3c-1.93,0-5.24,.11-5.24,2.78,0,1.61,1.4,2.44,2.87,2.44,3.31,0,3.52-2.62,3.52-5.17-.39-.02-.76-.05-1.15-.05Z"/><path class="cls-2" d="M91.36,334.76v5.75c0,4.78-1.2,6.74-5.1,6.74-2.25,0-4.58-.74-4.58-3.38h1.43c0,1.79,1.47,2.35,3.04,2.35,2.81,0,3.79-1.52,3.79-5.82-.92,1.47-2.14,2.16-3.89,2.16-3.5,0-5.08-2.62-5.08-5.84s1.66-5.91,5.01-5.91c1.79,0,3.15,.76,4,2.34,0-.71,.02-1.42,.02-2.14h1.45c-.07,1.56-.09,2.48-.09,3.75Zm-5.1-2.85c-2.76,0-3.75,2.48-3.75,4.88s1.03,4.74,3.73,4.74,3.75-2.51,3.75-4.92c0-2.23-1.2-4.69-3.73-4.69Z"/><path class="cls-2" d="M95.94,337.31c0,2.35,1.31,4.53,3.86,4.53,1.84,0,2.99-1.15,3.29-2.9h1.33c-.48,2.6-2.18,3.93-4.81,3.93-3.54,0-5.1-2.6-5.1-5.86s1.63-6.19,5.29-6.19,4.69,3.1,4.69,6.21h-8.55v.28Zm3.77-5.4c-2.35,0-3.54,1.98-3.73,4.09h7.08v-.23c0-2.05-1.15-3.86-3.36-3.86Z"/><path class="cls-2" d="M115.54,346.99l1.84-4.44-4.88-11.54h1.68l3.89,9.73,3.86-9.73h1.4l-6.37,15.98h-1.43Z"/><path class="cls-2" d="M130.03,342.87c-3.63,0-5.45-2.74-5.45-6.14s1.91-5.96,5.45-5.96,5.43,2.55,5.43,5.96-1.93,6.14-5.43,6.14Zm0-10.95c-2.78,0-3.96,2.3-3.96,4.81s1.15,5.06,3.96,5.06,3.93-2.67,3.93-5.06-1.15-4.81-3.93-4.81Z"/><path class="cls-2" d="M146.42,340.76c-.97,1.38-2.07,1.98-3.77,1.98-3.1,0-4.14-1.7-4.14-4.62v-7.11h1.4v6.55c0,2.16,.51,4,2.97,4,2.62,0,3.5-2.18,3.5-4.48v-6.07h1.4v8.14c0,1.15,.02,2.32,.07,3.47h-1.38l-.05-1.86Z"/><path class="cls-2" d="M156.45,332.3c-2.48,0-3.27,1.45-3.27,3.75v6.58h-1.4v-8.21c0-1.13-.05-2.28-.07-3.4h1.38l.09,1.82c.85-1.33,2-1.89,3.56-1.89,.21,0,.44,.02,.64,.05v1.4c-.32-.07-.62-.09-.94-.09Z"/><path class="cls-2" d="M177.08,342.62l-3.47-10.09-3.52,10.09h-1.36l-4.12-11.61h1.59l3.24,9.93,3.45-9.93h1.59l3.33,9.82,3.31-9.82h1.42l-4.21,11.61h-1.26Z"/><path class="cls-2" d="M185.3,337.31c0,2.35,1.31,4.53,3.86,4.53,1.84,0,2.99-1.15,3.29-2.9h1.33c-.48,2.6-2.18,3.93-4.81,3.93-3.54,0-5.1-2.6-5.1-5.86s1.63-6.19,5.29-6.19,4.69,3.1,4.69,6.21h-8.55v.28Zm3.77-5.4c-2.34,0-3.54,1.98-3.72,4.09h7.08v-.23c0-2.05-1.15-3.86-3.36-3.86Z"/><path class="cls-2" d="M204.06,340.94c-.97,1.47-2.16,1.93-3.89,1.93-2.12,0-4.05-1.06-4.05-3.4,0-3.7,4.32-3.82,7.17-3.82h.6c.02-.28,.02-.53,.02-.8,0-1.98-.78-2.99-2.83-2.99-1.49,0-2.51,.48-2.69,2.14h-1.38c.02-2.32,2.02-3.2,4.07-3.2,2.88,0,4.21,1.2,4.21,4.07v3.45c0,1.45,.07,2.85,.23,4.3h-1.29c-.05-.55-.11-1.13-.18-1.68Zm-1.26-4.3c-1.93,0-5.24,.11-5.24,2.78,0,1.61,1.4,2.44,2.88,2.44,3.31,0,3.52-2.62,3.52-5.17-.39-.02-.76-.05-1.15-.05Z"/><path class="cls-2" d="M209.31,326h1.4v16.63h-1.4v-16.63Z"/><path class="cls-2" d="M217.89,342.71c-1.68,0-2.46-.8-2.46-2.48v-8.19h-2.3v-1.03h2.3v-2.39l1.4-.62v3.01h2.6v1.03h-2.6v7.57c0,1.31,.18,1.93,1.63,1.93,.28,0,.69-.07,1.06-.14v1.2c-.55,.07-1.08,.12-1.63,.12Z"/><path class="cls-2" d="M230.05,336.07c0-2.16-.25-4-2.92-4s-3.54,2.07-3.54,4.37v6.19h-1.4v-16.63h1.4v6.95c.92-1.38,2.12-2.05,3.77-2.05,3.17,0,4.09,1.7,4.09,4.62v7.11h-1.4v-6.55Z"/></g><rect class="cls-1" width="300" height="600"/></svg>