<?xml version="1.0" encoding="UTF-8"?><svg id="Layer_1" xmlns="http://www.w3.org/2000/svg" viewBox="0 0 300 600"><defs><style>.cls-1{fill:none;}.cls-2{fill:#fff;}</style></defs><g><path class="cls-2" d="M33.19,370.22l-3.47-10.09-3.52,10.09h-1.36l-4.12-11.61h1.59l3.24,9.93,3.45-9.93h1.59l3.33,9.82,3.31-9.82h1.43l-4.21,11.61h-1.26Z"/><path class="cls-2" d="M40.99,353.6h1.68v1.75h-1.68v-1.75Zm.14,5.01h1.4v11.61h-1.4v-11.61Z"/><path class="cls-2" d="M49.71,370.31c-1.68,0-2.46-.8-2.46-2.48v-8.19h-2.3v-1.03h2.3v-2.39l1.4-.62v3.01h2.6v1.03h-2.6v7.57c0,1.31,.18,1.93,1.63,1.93,.28,0,.69-.07,1.06-.14v1.2c-.55,.07-1.08,.12-1.63,.12Z"/><path class="cls-2" d="M61.88,363.67c0-2.16-.25-4-2.92-4s-3.54,2.07-3.54,4.37v6.19h-1.4v-16.63h1.4v6.95c.92-1.38,2.12-2.05,3.77-2.05,3.17,0,4.09,1.7,4.09,4.62v7.11h-1.4v-6.55Z"/><path class="cls-2" d="M76.83,370.31c-1.68,0-2.46-.8-2.46-2.48v-8.19h-2.3v-1.03h2.3v-2.39l1.4-.62v3.01h2.6v1.03h-2.6v7.57c0,1.31,.18,1.93,1.63,1.93,.28,0,.69-.07,1.06-.14v1.2c-.55,.07-1.08,.12-1.63,.12Z"/><path class="cls-2" d="M88.99,363.67c0-2.16-.25-4-2.92-4s-3.54,2.07-3.54,4.37v6.19h-1.4v-16.63h1.4v6.95c.92-1.38,2.12-2.05,3.77-2.05,3.17,0,4.09,1.7,4.09,4.62v7.11h-1.4v-6.55Z"/><path class="cls-2" d="M94.88,364.91c0,2.35,1.31,4.53,3.86,4.53,1.84,0,2.99-1.15,3.29-2.9h1.33c-.48,2.6-2.18,3.93-4.81,3.93-3.54,0-5.1-2.6-5.1-5.86s1.63-6.19,5.29-6.19,4.69,3.1,4.69,6.21h-8.55v.28Zm3.77-5.4c-2.35,0-3.54,1.98-3.73,4.09h7.08v-.23c0-2.05-1.15-3.86-3.36-3.86Z"/><path class="cls-2" d="M117.67,359.9c-2.48,0-3.27,1.45-3.27,3.75v6.58h-1.4v-8.21c0-1.13-.05-2.28-.07-3.4h1.38l.09,1.82c.85-1.33,2-1.89,3.56-1.89,.21,0,.44,.02,.64,.05v1.4c-.32-.07-.62-.09-.94-.09Z"/><path class="cls-2" d="M120.8,353.6h1.68v1.75h-1.68v-1.75Zm.14,5.01h1.4v11.61h-1.4v-11.61Z"/><path class="cls-2" d="M135.87,362.36v5.75c0,4.78-1.2,6.74-5.1,6.74-2.25,0-4.58-.74-4.58-3.38h1.43c0,1.79,1.47,2.35,3.04,2.35,2.81,0,3.79-1.52,3.79-5.82-.92,1.47-2.14,2.16-3.89,2.16-3.5,0-5.08-2.62-5.08-5.84s1.66-5.91,5.01-5.91c1.79,0,3.15,.76,4,2.34,0-.71,.02-1.42,.02-2.14h1.45c-.07,1.56-.09,2.48-.09,3.75Zm-5.1-2.85c-2.76,0-3.75,2.48-3.75,4.88s1.03,4.74,3.73,4.74,3.75-2.51,3.75-4.92c0-2.23-1.2-4.69-3.73-4.69Z"/><path class="cls-2" d="M147.76,363.67c0-2.16-.25-4-2.92-4s-3.54,2.07-3.54,4.37v6.19h-1.4v-16.63h1.4v6.95c.92-1.38,2.12-2.05,3.77-2.05,3.17,0,4.09,1.7,4.09,4.62v7.11h-1.4v-6.55Z"/><path class="cls-2" d="M156.27,370.31c-1.68,0-2.46-.8-2.46-2.48v-8.19h-2.3v-1.03h2.3v-2.39l1.4-.62v3.01h2.6v1.03h-2.6v7.57c0,1.31,.18,1.93,1.63,1.93,.28,0,.69-.07,1.06-.14v1.2c-.55,.07-1.08,.12-1.63,.12Z"/><path class="cls-2" d="M170.42,370.45c-2.39,0-4.19-1.08-4.19-3.63h1.38c0,1.75,1.17,2.58,2.87,2.58,1.36,0,2.97-.71,2.97-2.28,0-1.22-1.04-1.72-2.58-2.16l-1.22-.35c-1.79-.51-3.15-1.24-3.15-3.06,0-2.25,2.05-3.22,4.05-3.22,2.25,0,3.93,.99,4,3.4h-1.4c-.09-1.59-.99-2.28-2.55-2.28-1.17,0-2.69,.55-2.69,1.95,0,1.13,.97,1.66,2.39,2.05l1.31,.37c2.21,.62,3.2,1.47,3.2,3.08,0,2.48-2.18,3.54-4.39,3.54Z"/><path class="cls-2" d="M185.89,368.36c-.97,1.38-2.07,1.98-3.77,1.98-3.1,0-4.14-1.7-4.14-4.62v-7.11h1.4v6.55c0,2.16,.51,4,2.97,4,2.62,0,3.5-2.18,3.5-4.48v-6.07h1.4v8.14c0,1.15,.02,2.32,.07,3.47h-1.38l-.05-1.86Z"/><path class="cls-2" d="M196.38,370.41c-1.77,0-2.76-.69-3.73-2.12v6.3h-1.4v-12.51c0-1.15-.02-2.32-.09-3.47h1.43l.07,2.16c.9-1.63,2.14-2.37,4-2.37,3.36,0,4.83,2.8,4.83,5.84s-1.68,6.16-5.1,6.16Zm.09-10.9c-2.78,0-3.82,2.53-3.82,4.94s.83,4.83,3.54,4.83,3.79-2.44,3.79-4.88c0-2.25-.83-4.9-3.52-4.9Z"/><path class="cls-2" d="M209.74,370.41c-1.77,0-2.76-.69-3.73-2.12v6.3h-1.4v-12.51c0-1.15-.02-2.32-.09-3.47h1.43l.07,2.16c.9-1.63,2.14-2.37,4-2.37,3.36,0,4.83,2.8,4.83,5.84s-1.68,6.16-5.1,6.16Zm.09-10.9c-2.78,0-3.82,2.53-3.82,4.94s.83,4.83,3.54,4.83,3.79-2.44,3.79-4.88c0-2.25-.83-4.9-3.52-4.9Z"/><path class="cls-2" d="M222.55,370.47c-3.63,0-5.45-2.74-5.45-6.14s1.91-5.96,5.45-5.96,5.43,2.55,5.43,5.96-1.93,6.14-5.43,6.14Zm0-10.95c-2.78,0-3.96,2.3-3.96,4.81s1.15,5.06,3.96,5.06,3.93-2.67,3.93-5.06-1.15-4.81-3.93-4.81Z"/><path class="cls-2" d="M235.78,359.9c-2.48,0-3.27,1.45-3.27,3.75v6.58h-1.4v-8.21c0-1.13-.05-2.28-.07-3.4h1.38l.09,1.82c.85-1.33,2-1.89,3.56-1.89,.21,0,.44,.02,.64,.05v1.4c-.32-.07-.62-.09-.94-.09Z"/><path class="cls-2" d="M242.22,370.31c-1.68,0-2.46-.8-2.46-2.48v-8.19h-2.3v-1.03h2.3v-2.39l1.4-.62v3.01h2.6v1.03h-2.6v7.57c0,1.31,.18,1.93,1.63,1.93,.28,0,.69-.07,1.06-.14v1.2c-.55,.07-1.08,.12-1.63,.12Z"/></g><rect class="cls-1" width="300" height="600"/></svg>