<?xml version="1.0" encoding="UTF-8"?><svg id="Layer_1" xmlns="http://www.w3.org/2000/svg" viewBox="0 0 300 600"><defs><style>.cls-1{fill:none;}.cls-2{fill:#fff;}</style></defs><g><path class="cls-2" d="M26.39,382.14c-1.7,0-1.98,.62-1.98,2.23v1.84h2.58v1.04h-2.58v10.58h-1.4v-10.58h-2.35v-1.04h2.35v-1.72c0-1.82,.28-3.45,2.74-3.45,.48,0,.97,.02,1.45,.07v1.08c-.21-.02-.53-.05-.8-.05Z"/><path class="cls-2" d="M34.25,387.5c-2.48,0-3.27,1.45-3.27,3.75v6.58h-1.4v-8.21c0-1.13-.05-2.28-.07-3.4h1.38l.09,1.82c.85-1.33,2-1.89,3.56-1.89,.21,0,.44,.02,.64,.05v1.4c-.32-.07-.62-.09-.94-.09Z"/><path class="cls-2" d="M42.1,398.07c-3.63,0-5.45-2.74-5.45-6.14s1.91-5.96,5.45-5.96,5.43,2.55,5.43,5.96-1.93,6.14-5.43,6.14Zm0-10.95c-2.78,0-3.96,2.3-3.96,4.81s1.15,5.06,3.96,5.06,3.93-2.67,3.93-5.06-1.15-4.81-3.93-4.81Z"/><path class="cls-2" d="M65.88,390.81c0-2-.6-3.54-2.9-3.54-2.62,0-3.31,1.82-3.31,4.09v6.46h-1.4v-6.85c0-2.05-.46-3.7-2.87-3.7s-3.33,2-3.33,4.09v6.46h-1.4v-8.83c0-.92-.07-1.86-.07-2.78h1.38l.09,2.02c.78-1.43,1.95-2.14,3.59-2.14,1.91,0,3.01,.69,3.73,2.48,.8-1.72,2.09-2.48,3.98-2.48,3.4,0,3.93,2.23,3.93,5.08v6.65h-1.4v-7.01Z"/><path class="cls-2" d="M84.74,396.14c-.97,1.47-2.16,1.93-3.89,1.93-2.12,0-4.05-1.06-4.05-3.4,0-3.7,4.32-3.82,7.17-3.82h.6c.02-.28,.02-.53,.02-.81,0-1.98-.78-2.99-2.83-2.99-1.49,0-2.51,.48-2.69,2.14h-1.38c.02-2.32,2.02-3.2,4.07-3.2,2.87,0,4.21,1.2,4.21,4.07v3.45c0,1.45,.07,2.85,.23,4.3h-1.29c-.05-.55-.12-1.13-.18-1.68Zm-1.26-4.3c-1.93,0-5.24,.12-5.24,2.78,0,1.61,1.4,2.44,2.87,2.44,3.31,0,3.52-2.62,3.52-5.17-.39-.02-.76-.05-1.15-.05Z"/><path class="cls-2" d="M104.38,395.89c-.99,1.47-2,2.12-3.79,2.12-3.5,0-5.04-2.97-5.04-6.12s1.59-5.89,4.92-5.89c1.84,0,3.01,.67,3.91,2.28v-7.08h1.4v13.15c0,1.15,0,2.32,.09,3.47h-1.38l-.11-1.93Zm-3.79-8.78c-2.71,0-3.54,2.62-3.54,4.9,0,2.41,.99,4.88,3.79,4.88s3.54-2.53,3.54-4.83-1.04-4.94-3.79-4.94Z"/><path class="cls-2" d="M110.34,392.51c0,2.35,1.31,4.53,3.86,4.53,1.84,0,2.99-1.15,3.29-2.9h1.33c-.48,2.6-2.18,3.93-4.81,3.93-3.54,0-5.1-2.6-5.1-5.86s1.63-6.19,5.29-6.19,4.69,3.1,4.69,6.21h-8.55v.28Zm3.77-5.4c-2.35,0-3.54,1.98-3.73,4.09h7.08v-.23c0-2.05-1.15-3.86-3.36-3.86Z"/><path class="cls-2" d="M129.98,395.89c-.99,1.47-2,2.12-3.79,2.12-3.5,0-5.04-2.97-5.04-6.12s1.59-5.89,4.92-5.89c1.84,0,3.01,.67,3.91,2.28v-7.08h1.4v13.15c0,1.15,0,2.32,.09,3.47h-1.38l-.11-1.93Zm-3.79-8.78c-2.71,0-3.54,2.62-3.54,4.9,0,2.41,.99,4.88,3.79,4.88s3.54-2.53,3.54-4.83-1.04-4.94-3.79-4.94Z"/><path class="cls-2" d="M135.25,381.2h1.68v1.75h-1.68v-1.75Zm.14,5.01h1.4v11.61h-1.4v-11.61Z"/><path class="cls-2" d="M145.34,398.07c-3.59,0-5.43-2.51-5.43-5.93s1.82-6.25,5.54-6.25c2.53,0,4.25,1.36,4.46,3.93h-1.36c-.16-1.79-1.29-2.83-3.08-2.83-2.99,0-4.07,2.44-4.07,5.08,0,2.46,1.2,4.94,3.96,4.94,1.77,0,3.1-1.15,3.24-2.94h1.31c-.25,2.6-2.02,4-4.58,4Z"/><path class="cls-2" d="M159.88,396.14c-.97,1.47-2.16,1.93-3.89,1.93-2.12,0-4.05-1.06-4.05-3.4,0-3.7,4.32-3.82,7.17-3.82h.6c.02-.28,.02-.53,.02-.81,0-1.98-.78-2.99-2.83-2.99-1.49,0-2.51,.48-2.69,2.14h-1.38c.02-2.32,2.02-3.2,4.07-3.2,2.87,0,4.21,1.2,4.21,4.07v3.45c0,1.45,.07,2.85,.23,4.3h-1.29c-.05-.55-.12-1.13-.18-1.68Zm-1.26-4.3c-1.93,0-5.24,.12-5.24,2.78,0,1.61,1.4,2.44,2.87,2.44,3.31,0,3.52-2.62,3.52-5.17-.39-.02-.76-.05-1.15-.05Z"/><path class="cls-2" d="M168.3,397.91c-1.68,0-2.46-.8-2.46-2.48v-8.19h-2.3v-1.04h2.3v-2.39l1.4-.62v3.01h2.6v1.04h-2.6v7.57c0,1.31,.18,1.93,1.63,1.93,.28,0,.69-.07,1.06-.14v1.2c-.55,.07-1.08,.11-1.63,.11Z"/><path class="cls-2" d="M173.15,392.51c0,2.35,1.31,4.53,3.86,4.53,1.84,0,2.99-1.15,3.29-2.9h1.33c-.48,2.6-2.18,3.93-4.81,3.93-3.54,0-5.1-2.6-5.1-5.86s1.63-6.19,5.29-6.19,4.69,3.1,4.69,6.21h-8.55v.28Zm3.77-5.4c-2.34,0-3.54,1.98-3.72,4.09h7.08v-.23c0-2.05-1.15-3.86-3.36-3.86Z"/><path class="cls-2" d="M192.79,395.89c-.99,1.47-2,2.12-3.79,2.12-3.5,0-5.04-2.97-5.04-6.12s1.59-5.89,4.92-5.89c1.84,0,3.01,.67,3.91,2.28v-7.08h1.4v13.15c0,1.15,0,2.32,.09,3.47h-1.38l-.12-1.93Zm-3.79-8.78c-2.71,0-3.54,2.62-3.54,4.9,0,2.41,.99,4.88,3.79,4.88s3.54-2.53,3.54-4.83-1.04-4.94-3.79-4.94Z"/></g><rect class="cls-1" width="300" height="600"/></svg>