<?xml version="1.0" encoding="UTF-8"?><svg id="Layer_1" xmlns="http://www.w3.org/2000/svg" viewBox="0 0 300 600"><defs><style>.cls-1{fill:none;}.cls-2{fill:#fff;}</style></defs><g><path class="cls-2" d="M31.52,421.42c-.23-2.76-.39-4.02-3.4-4.02h-3.93v8.03h-1.49v-16.63h5.59c2.6,0,5.24,.97,5.24,4,0,2.18-1.2,3.33-3.2,3.96,.9,.16,1.72,.57,2.12,1.45,.8,1.79,.51,6.16,1.47,7.22h-1.72c-.55-1.2-.55-2.69-.67-4Zm-3.59-11.38h-3.75v6.12h3.63c2.21,0,4.12-.62,4.12-3.2s-1.93-2.92-4-2.92Z"/><path class="cls-2" d="M37.98,420.11c0,2.35,1.31,4.53,3.86,4.53,1.84,0,2.99-1.15,3.29-2.9h1.33c-.48,2.6-2.18,3.93-4.81,3.93-3.54,0-5.1-2.6-5.1-5.86s1.63-6.19,5.29-6.19,4.69,3.1,4.69,6.21h-8.55v.28Zm3.77-5.4c-2.35,0-3.54,1.98-3.73,4.09h7.08v-.23c0-2.05-1.15-3.86-3.36-3.86Z"/><path class="cls-2" d="M49.67,408.8h1.4v16.63h-1.4v-16.63Z"/><path class="cls-2" d="M62.15,423.74c-.97,1.47-2.16,1.93-3.89,1.93-2.12,0-4.05-1.06-4.05-3.4,0-3.7,4.32-3.82,7.17-3.82h.6c.02-.28,.02-.53,.02-.8,0-1.98-.78-2.99-2.83-2.99-1.49,0-2.51,.48-2.69,2.14h-1.38c.02-2.32,2.02-3.2,4.07-3.2,2.87,0,4.21,1.2,4.21,4.07v3.45c0,1.45,.07,2.85,.23,4.3h-1.29c-.05-.55-.12-1.13-.18-1.68Zm-1.26-4.3c-1.93,0-5.24,.11-5.24,2.78,0,1.61,1.4,2.44,2.87,2.44,3.31,0,3.52-2.62,3.52-5.17-.39-.02-.76-.05-1.15-.05Z"/><path class="cls-2" d="M70.57,425.51c-1.68,0-2.46-.8-2.46-2.48v-8.19h-2.3v-1.03h2.3v-2.39l1.4-.62v3.01h2.6v1.03h-2.6v7.57c0,1.31,.18,1.93,1.63,1.93,.28,0,.69-.07,1.06-.14v1.2c-.55,.07-1.08,.12-1.63,.12Z"/><path class="cls-2" d="M74.74,408.8h1.68v1.75h-1.68v-1.75Zm.14,5.01h1.4v11.61h-1.4v-11.61Z"/><path class="cls-2" d="M84.85,425.67c-3.63,0-5.45-2.74-5.45-6.14s1.91-5.96,5.45-5.96,5.43,2.55,5.43,5.96-1.93,6.14-5.43,6.14Zm0-10.95c-2.78,0-3.96,2.3-3.96,4.81s1.15,5.06,3.96,5.06,3.93-2.67,3.93-5.06-1.15-4.81-3.93-4.81Z"/><path class="cls-2" d="M101.28,418.87c0-2.16-.25-4-2.92-4s-3.54,2.07-3.54,4.37v6.19h-1.4v-8.32c0-1.1-.07-2.18-.07-3.29h1.38l.09,1.93c.94-1.4,2.09-2.05,3.79-2.05,3.15,0,4.07,1.75,4.07,4.62v7.11h-1.4v-6.55Z"/><path class="cls-2" d="M110.02,425.65c-2.39,0-4.19-1.08-4.19-3.63h1.38c0,1.75,1.17,2.58,2.87,2.58,1.36,0,2.97-.71,2.97-2.28,0-1.22-1.03-1.72-2.58-2.16l-1.22-.35c-1.79-.51-3.15-1.24-3.15-3.06,0-2.25,2.05-3.22,4.05-3.22,2.25,0,3.93,.99,4,3.4h-1.4c-.09-1.59-.99-2.28-2.55-2.28-1.17,0-2.69,.55-2.69,1.95,0,1.13,.97,1.66,2.39,2.05l1.31,.37c2.21,.62,3.2,1.47,3.2,3.08,0,2.48-2.18,3.54-4.39,3.54Z"/><path class="cls-2" d="M125.52,418.87c0-2.16-.25-4-2.92-4s-3.54,2.07-3.54,4.37v6.19h-1.4v-16.63h1.4v6.95c.92-1.38,2.12-2.05,3.77-2.05,3.17,0,4.09,1.7,4.09,4.62v7.11h-1.4v-6.55Z"/><path class="cls-2" d="M130.72,408.8h1.68v1.75h-1.68v-1.75Zm.14,5.01h1.4v11.61h-1.4v-11.61Z"/><path class="cls-2" d="M141.39,425.61c-1.77,0-2.76-.69-3.73-2.12v6.3h-1.4v-12.51c0-1.15-.02-2.32-.09-3.47h1.43l.07,2.16c.9-1.63,2.14-2.37,4-2.37,3.36,0,4.83,2.8,4.83,5.84s-1.68,6.16-5.1,6.16Zm.09-10.9c-2.78,0-3.82,2.53-3.82,4.94s.83,4.83,3.54,4.83,3.79-2.44,3.79-4.88c0-2.25-.83-4.9-3.52-4.9Z"/><path class="cls-2" d="M171.88,410.04l-6.25,15.38h-1.47l-6.28-15.38v15.38h-1.4v-16.63h2.46l6,14.83,5.96-14.83h2.46v16.63h-1.47v-15.38Z"/><path class="cls-2" d="M184.86,423.74c-.97,1.47-2.16,1.93-3.89,1.93-2.12,0-4.05-1.06-4.05-3.4,0-3.7,4.32-3.82,7.17-3.82h.6c.02-.28,.02-.53,.02-.8,0-1.98-.78-2.99-2.83-2.99-1.49,0-2.51,.48-2.69,2.14h-1.38c.02-2.32,2.02-3.2,4.07-3.2,2.88,0,4.21,1.2,4.21,4.07v3.45c0,1.45,.07,2.85,.23,4.3h-1.29c-.05-.55-.11-1.13-.18-1.68Zm-1.26-4.3c-1.93,0-5.24,.11-5.24,2.78,0,1.61,1.4,2.44,2.88,2.44,3.31,0,3.52-2.62,3.52-5.17-.39-.02-.76-.05-1.15-.05Z"/><path class="cls-2" d="M197.97,418.87c0-2.16-.25-4-2.92-4s-3.54,2.07-3.54,4.37v6.19h-1.4v-8.32c0-1.1-.07-2.18-.07-3.29h1.38l.09,1.93c.94-1.4,2.09-2.05,3.79-2.05,3.15,0,4.07,1.75,4.07,4.62v7.11h-1.4v-6.55Z"/><path class="cls-2" d="M210.39,423.74c-.97,1.47-2.16,1.93-3.89,1.93-2.12,0-4.05-1.06-4.05-3.4,0-3.7,4.32-3.82,7.17-3.82h.6c.02-.28,.02-.53,.02-.8,0-1.98-.78-2.99-2.83-2.99-1.49,0-2.51,.48-2.69,2.14h-1.38c.02-2.32,2.02-3.2,4.07-3.2,2.88,0,4.21,1.2,4.21,4.07v3.45c0,1.45,.07,2.85,.23,4.3h-1.29c-.05-.55-.11-1.13-.18-1.68Zm-1.26-4.3c-1.93,0-5.24,.11-5.24,2.78,0,1.61,1.4,2.44,2.88,2.44,3.31,0,3.52-2.62,3.52-5.17-.39-.02-.76-.05-1.15-.05Z"/><path class="cls-2" d="M225.15,417.56v5.75c0,4.78-1.2,6.74-5.1,6.74-2.25,0-4.58-.74-4.58-3.38h1.43c0,1.79,1.47,2.35,3.04,2.35,2.81,0,3.79-1.52,3.79-5.82-.92,1.47-2.14,2.16-3.89,2.16-3.5,0-5.08-2.62-5.08-5.84s1.66-5.91,5.01-5.91c1.79,0,3.15,.76,4,2.34,0-.71,.02-1.42,.02-2.14h1.45c-.07,1.56-.09,2.48-.09,3.75Zm-5.1-2.85c-2.76,0-3.75,2.48-3.75,4.88s1.04,4.74,3.73,4.74,3.75-2.51,3.75-4.92c0-2.23-1.2-4.69-3.72-4.69Z"/><path class="cls-2" d="M229.73,420.11c0,2.35,1.31,4.53,3.86,4.53,1.84,0,2.99-1.15,3.29-2.9h1.33c-.48,2.6-2.18,3.93-4.81,3.93-3.54,0-5.1-2.6-5.1-5.86s1.63-6.19,5.29-6.19,4.69,3.1,4.69,6.21h-8.55v.28Zm3.77-5.4c-2.34,0-3.54,1.98-3.72,4.09h7.08v-.23c0-2.05-1.15-3.86-3.36-3.86Z"/><path class="cls-2" d="M246.08,415.1c-2.48,0-3.27,1.45-3.27,3.75v6.58h-1.4v-8.21c0-1.13-.05-2.28-.07-3.4h1.38l.09,1.82c.85-1.33,2-1.89,3.56-1.89,.21,0,.44,.02,.64,.05v1.4c-.32-.07-.62-.09-.94-.09Z"/><path class="cls-2" d="M247.99,423.44h1.84v1.98h-1.84v-1.98Z"/></g><rect class="cls-1" width="300" height="600"/></svg>