<?xml version="1.0" encoding="UTF-8"?><svg id="Layer_1" xmlns="http://www.w3.org/2000/svg" viewBox="0 0 300 600"><defs><style>.cls-1{fill:#fff;}.cls-2{fill:#db0011;}</style></defs><path class="cls-1" d="m69.71,563.1h-3.67v3.63h-1.84v-8.49h1.84v3.48h3.67v-3.48h1.84v8.49h-1.84v-3.63Z"/><path class="cls-1" d="m75.97,566.88c-1.83,0-3.33-.73-3.37-2.76h1.84c.02.9.55,1.44,1.56,1.44.75,0,1.6-.38,1.6-1.22,0-.66-.57-.87-1.53-1.14l-.61-.18c-1.34-.39-2.66-.9-2.66-2.43,0-1.89,1.76-2.52,3.37-2.52s3.08.57,3.09,2.45h-1.84c-.07-.78-.52-1.22-1.38-1.22-.68,0-1.36.36-1.36,1.12,0,.62.56.81,1.76,1.19l.71.22c1.45.46,2.37.96,2.37,2.37,0,1.94-1.87,2.68-3.53,2.68Z"/><path class="cls-1" d="m80.54,558.24h2.95c.93,0,1.3.02,1.67.11,1.03.23,1.81.91,1.81,2.05s-.69,1.65-1.69,1.91c1.14.21,2,.8,2,2.05,0,1.93-1.9,2.37-3.39,2.37h-3.34v-8.49Zm2.96,3.53c.81,0,1.63-.16,1.63-1.14,0-.88-.77-1.11-1.51-1.11h-1.29v2.27h1.17Zm.17,3.68c.86,0,1.7-.2,1.7-1.23s-.73-1.24-1.6-1.24h-1.45v2.48h1.35Z"/><path class="cls-1" d="m92.07,566.88c-2.73,0-3.97-1.75-3.97-4.33s1.36-4.47,4.06-4.47c1.69,0,3.33.75,3.38,2.68h-1.9c-.09-.84-.66-1.29-1.48-1.29-1.65,0-2.16,1.78-2.16,3.15s.5,2.92,2.1,2.92c.83,0,1.44-.45,1.57-1.3h1.91c-.21,1.92-1.76,2.65-3.52,2.65Z"/><g><rect class="cls-1" x="30.41" y="552.35" width="20.27" height="20.27"/><polygon class="cls-2" points="50.68 572.61 60.81 562.48 50.68 552.35 50.68 552.35 50.68 572.61"/><polygon class="cls-2" points="30.41 572.61 20.27 562.48 30.41 552.35 30.41 552.35 30.41 572.61"/><polygon class="cls-2" points="50.68 552.35 40.54 562.48 30.41 552.35 30.41 552.35 50.68 552.35"/><polygon class="cls-2" points="30.41 572.61 40.54 562.48 50.68 572.61 50.68 572.61 30.41 572.61"/></g></svg>