<svg xmlns="http://www.w3.org/2000/svg" width="600" height="1200" viewBox="0 0 600 1200">
  <defs>
    <style>
      .cls-1 {
        fill: #fff;
        fill-rule: evenodd;
      }
    </style>
  </defs>
  <g id="International_Engage_Banner_300x600_Frame_1" data-name="International Engage Banner 300x600 Frame 1">
    <path id="Why_can_t_your_bank_greet_you_copy_3" data-name="Why can’t your bank greet you  copy 3" class="cls-1" d="M104.06,1522h-3.84l-10.08,39.96L76.88,1522H72.14l-12.72,39.96L49.28,1522H45.14l11.34,43.38h5.46l12.48-39.3,12.9,39.3h5.34Zm27.48,43.38v-18.54a22.969,22.969,0,0,0-.51-5.1,9.428,9.428,0,0,0-1.74-3.78,7.669,7.669,0,0,0-3.27-2.37,14.109,14.109,0,0,0-5.16-.81,11.521,11.521,0,0,0-5.64,1.32,12.124,12.124,0,0,0-4.2,4.02V1522h-3.66v43.38h3.66v-16.14a18.875,18.875,0,0,1,.48-4.29,10.779,10.779,0,0,1,1.56-3.66,7.723,7.723,0,0,1,2.85-2.52,9.263,9.263,0,0,1,4.35-.93,8.561,8.561,0,0,1,4.11.84,5.64,5.64,0,0,1,2.31,2.28,9.054,9.054,0,0,1,.99,3.33,36.165,36.165,0,0,1,.21,3.99v17.1h3.66Zm32.94-30.3h-3.66l-10.08,25.38-10.14-25.38h-4.38l12.72,30.12-4.8,11.58h3.72Zm43.86,20.52h-3.42a8.079,8.079,0,0,1-2.64,5.61,8.466,8.466,0,0,1-5.82,2.07,9.247,9.247,0,0,1-4.65-1.11,9.627,9.627,0,0,1-3.21-2.94,12.968,12.968,0,0,1-1.86-4.14,18.659,18.659,0,0,1-.6-4.71,21.426,21.426,0,0,1,.57-4.98,12.454,12.454,0,0,1,1.83-4.23,9.445,9.445,0,0,1,3.27-2.94,10.12,10.12,0,0,1,4.95-1.11,7.4,7.4,0,0,1,8.04,7.38h3.54q-0.42-5.1-3.54-7.68a12.293,12.293,0,0,0-8.1-2.58,14.614,14.614,0,0,0-6.36,1.29,12.971,12.971,0,0,0-4.5,3.48,14.768,14.768,0,0,0-2.7,5.16,21.932,21.932,0,0,0-.9,6.39,20.237,20.237,0,0,0,.9,6.18,13.954,13.954,0,0,0,2.67,4.89,12.206,12.206,0,0,0,4.41,3.24,15.14,15.14,0,0,0,6.18,1.17,12.469,12.469,0,0,0,8.25-2.67,10.956,10.956,0,0,0,3.69-7.77h0Zm28.32,9.78q-0.3-2.88-.45-5.61t-0.15-5.61v-9q0-5.64-2.67-8.13t-8.31-2.49a17.034,17.034,0,0,0-3.9.45,10.147,10.147,0,0,0-3.39,1.44,7.811,7.811,0,0,0-2.4,2.58,7.534,7.534,0,0,0-.93,3.87h3.6q0.36-3.24,2.22-4.41a8.885,8.885,0,0,1,4.8-1.17q4.018,0,5.7,1.95t1.68,5.85v1.05a9.76,9.76,0,0,1-.06,1.05h-1.56q-1.86,0-3.96.06a37.166,37.166,0,0,0-4.2.36,22.76,22.76,0,0,0-3.99.93,11.631,11.631,0,0,0-3.36,1.74,8.107,8.107,0,0,0-2.34,2.79,8.785,8.785,0,0,0-.87,4.08,8.5,8.5,0,0,0,.87,3.96,7.826,7.826,0,0,0,2.34,2.76,10.482,10.482,0,0,0,3.36,1.62,14.451,14.451,0,0,0,3.99.54,14.131,14.131,0,0,0,5.82-1.08,10.564,10.564,0,0,0,4.32-3.96q0.12,1.08.24,2.19t0.24,2.19h3.36Zm-4.35-10.56a12.3,12.3,0,0,1-1.14,4.32,7.484,7.484,0,0,1-2.76,3.09,9.373,9.373,0,0,1-5.07,1.17,10,10,0,0,1-2.79-.39,7.114,7.114,0,0,1-2.4-1.2,6.066,6.066,0,0,1-1.68-2.01,5.851,5.851,0,0,1-.63-2.76,5.539,5.539,0,0,1,1.44-4.05,8.944,8.944,0,0,1,3.51-2.19,16.65,16.65,0,0,1,4.44-.87q2.37-.15,4.29-0.15c0.519,0,1.02.01,1.5,0.03s0.98,0.05,1.5.09Q232.52,1552.42,232.31,1554.82Zm36.87,10.56v-18.54a22.662,22.662,0,0,0-.51-5.04,9.654,9.654,0,0,0-1.71-3.78,7.646,7.646,0,0,0-3.27-2.4,13.7,13.7,0,0,0-5.13-.84,11.654,11.654,0,0,0-5.7,1.29,12.359,12.359,0,0,0-4.2,4.05l-0.24-5.04h-3.6q0,2.16.09,4.29t0.09,4.29v21.72h3.66v-16.14a18.875,18.875,0,0,1,.48-4.29,10.779,10.779,0,0,1,1.56-3.66,7.723,7.723,0,0,1,2.85-2.52,9.263,9.263,0,0,1,4.35-.93,8.561,8.561,0,0,1,4.11.84,5.64,5.64,0,0,1,2.31,2.28,9.054,9.054,0,0,1,.99,3.33,36.165,36.165,0,0,1,.21,3.99v17.1h3.66ZM284.54,1522h-4.86l-2.76,12.36h3.24Zm21.24,43.32v-3.12q-0.72.12-1.47,0.24a8.353,8.353,0,0,1-1.29.12,6.983,6.983,0,0,1-2.28-.3,2.6,2.6,0,0,1-1.29-.93,3.422,3.422,0,0,1-.57-1.59,17.911,17.911,0,0,1-.12-2.22v-19.74h6.78v-2.7h-6.78v-7.86l-3.66,1.62v6.24h-6v2.7h6v21.36q0,6.48,6.42,6.48,1.08,0,2.13-.09t2.13-.21h0Z" transform="translate(0 -1328)"/>
  </g>
</svg>
