<svg xmlns="http://www.w3.org/2000/svg" width="600" height="1200" viewBox="0 0 600 1200">
  <defs>
    <style>
      .cls-1 {
        fill: #fff;
        fill-rule: evenodd;
      }
    </style>
  </defs>
  <g id="International_Engage_Banner_300x600_Frame_1" data-name="International Engage Banner 300x600 Frame 1">
    <path id="Why_can_t_your_bank_greet_you_copy_2" data-name="Why can’t your bank greet you  copy 2" class="cls-1" d="M73.4,1599.08H69.74l-10.08,25.38-10.14-25.38H45.14l12.72,30.12-4.8,11.58h3.72Zm29.22,8.79a14.249,14.249,0,0,0-2.67-4.95,12.019,12.019,0,0,0-4.44-3.27,15.2,15.2,0,0,0-6.15-1.17,14.655,14.655,0,0,0-6.12,1.2,12.653,12.653,0,0,0-4.44,3.3,14.389,14.389,0,0,0-2.73,4.92,19.416,19.416,0,0,0-.93,6.12,21.117,21.117,0,0,0,.9,6.27,14.8,14.8,0,0,0,2.67,5.07,12.59,12.59,0,0,0,4.44,3.42,14.4,14.4,0,0,0,6.21,1.26,13.637,13.637,0,0,0,6.06-1.29,12.967,12.967,0,0,0,4.44-3.51,15.611,15.611,0,0,0,2.73-5.13,19.883,19.883,0,0,0,.93-6.09A20.319,20.319,0,0,0,102.62,1607.87Zm-3.6,10.82a14.044,14.044,0,0,1-1.83,4.25,9.672,9.672,0,0,1-3.18,3.05,8.872,8.872,0,0,1-4.65,1.17,8.991,8.991,0,0,1-4.71-1.17,10.076,10.076,0,0,1-3.21-3.02,12.748,12.748,0,0,1-1.83-4.22,20.216,20.216,0,0,1-.57-4.76,18.115,18.115,0,0,1,.6-4.7,12.035,12.035,0,0,1,1.86-3.98,9.382,9.382,0,0,1,3.21-2.78,10.821,10.821,0,0,1,9.3,0,9.39,9.39,0,0,1,3.21,2.78,11.514,11.514,0,0,1,1.83,4.01A19.054,19.054,0,0,1,99.02,1618.69Zm35.34,10.69q-0.18-4.5-.18-9.06v-21.24h-3.66v15.84a20.853,20.853,0,0,1-.45,4.38,10.661,10.661,0,0,1-1.53,3.72,8.22,8.22,0,0,1-2.82,2.61,8.633,8.633,0,0,1-4.32.99,7.938,7.938,0,0,1-3.9-.84,6.323,6.323,0,0,1-2.37-2.28,9.144,9.144,0,0,1-1.17-3.33,25.327,25.327,0,0,1-.3-3.99v-17.1H110v18.54a21.686,21.686,0,0,0,.54,5.1,9.491,9.491,0,0,0,1.8,3.78,7.858,7.858,0,0,0,3.33,2.37,14.155,14.155,0,0,0,5.13.81,11.764,11.764,0,0,0,5.64-1.23,12.662,12.662,0,0,0,4.2-3.93l0.12,4.86h3.6Zm23.4-26.7v-3.66c-0.28-.04-0.561-0.07-0.84-0.09s-0.561-.03-0.84-0.03a11.8,11.8,0,0,0-5.34,1.14,10.14,10.14,0,0,0-3.96,3.78l-0.24-4.74h-3.6q0.059,2.22.12,4.44t0.06,4.44v21.42h3.66v-17.16a18.125,18.125,0,0,1,.42-4.05,7.706,7.706,0,0,1,1.41-3.09,6.466,6.466,0,0,1,2.61-1.95,10.458,10.458,0,0,1,4.08-.69,11.943,11.943,0,0,1,2.46.24h0Zm45.81,5.4a15.092,15.092,0,0,0-2.28-4.89,11.206,11.206,0,0,0-3.9-3.39,11.932,11.932,0,0,0-5.67-1.26,11.1,11.1,0,0,0-10.44,6.18V1586h-3.66v34.32q0,2.28-.06,4.53t-0.18,4.53h3.6l0.3-5.04a14.033,14.033,0,0,0,4.05,4.14,10.363,10.363,0,0,0,5.61,1.38,11.981,11.981,0,0,0,10.05-4.95,16.29,16.29,0,0,0,2.49-5.16,21.419,21.419,0,0,0,.84-5.97A21.639,21.639,0,0,0,203.57,1608.08Zm-3.66,10.78a12.422,12.422,0,0,1-1.68,4.09,8.639,8.639,0,0,1-7.71,4.03,8.149,8.149,0,0,1-4.41-1.11,8.653,8.653,0,0,1-2.85-2.92,12.667,12.667,0,0,1-1.53-4.06,23.144,23.144,0,0,1-.45-4.54,20.449,20.449,0,0,1,.54-4.66,13.251,13.251,0,0,1,1.71-4.15,9.175,9.175,0,0,1,3.09-2.98,8.892,8.892,0,0,1,4.62-1.14,7.831,7.831,0,0,1,4.41,1.17,8.756,8.756,0,0,1,2.82,3.04,13.9,13.9,0,0,1,1.5,4.12,22.845,22.845,0,0,1,.45,4.48A21.252,21.252,0,0,1,199.91,1618.86Zm33.39,10.52q-0.3-2.88-.45-5.61t-0.15-5.61v-9q0-5.64-2.67-8.13t-8.31-2.49a17.034,17.034,0,0,0-3.9.45,10.147,10.147,0,0,0-3.39,1.44,7.811,7.811,0,0,0-2.4,2.58,7.534,7.534,0,0,0-.93,3.87h3.6q0.36-3.24,2.22-4.41a8.885,8.885,0,0,1,4.8-1.17q4.018,0,5.7,1.95t1.68,5.85v1.05a9.76,9.76,0,0,1-.06,1.05h-1.56q-1.86,0-3.96.06a37.166,37.166,0,0,0-4.2.36,22.76,22.76,0,0,0-3.99.93,11.631,11.631,0,0,0-3.36,1.74,8.107,8.107,0,0,0-2.34,2.79,8.785,8.785,0,0,0-.87,4.08,8.5,8.5,0,0,0,.87,3.96,7.826,7.826,0,0,0,2.34,2.76,10.482,10.482,0,0,0,3.36,1.62,14.451,14.451,0,0,0,3.99.54,14.131,14.131,0,0,0,5.82-1.08,10.564,10.564,0,0,0,4.32-3.96q0.12,1.08.24,2.19t0.24,2.19h3.36Zm-4.35-10.56a12.3,12.3,0,0,1-1.14,4.32,7.484,7.484,0,0,1-2.76,3.09,9.373,9.373,0,0,1-5.07,1.17,10,10,0,0,1-2.79-.39,7.114,7.114,0,0,1-2.4-1.2,6.066,6.066,0,0,1-1.68-2.01,5.851,5.851,0,0,1-.63-2.76,5.539,5.539,0,0,1,1.44-4.05,8.944,8.944,0,0,1,3.51-2.19,16.65,16.65,0,0,1,4.44-.87q2.37-.15,4.29-0.15c0.519,0,1.02.01,1.5,0.03s0.98,0.05,1.5.09Q229.16,1616.42,228.95,1618.82Zm36.87,10.56v-18.54a22.662,22.662,0,0,0-.51-5.04,9.654,9.654,0,0,0-1.71-3.78,7.646,7.646,0,0,0-3.27-2.4,13.7,13.7,0,0,0-5.13-.84,11.654,11.654,0,0,0-5.7,1.29,12.359,12.359,0,0,0-4.2,4.05l-0.24-5.04h-3.6q0,2.16.09,4.29t0.09,4.29v21.72h3.66v-16.14a18.875,18.875,0,0,1,.48-4.29,10.779,10.779,0,0,1,1.56-3.66,7.723,7.723,0,0,1,2.85-2.52,9.263,9.263,0,0,1,4.35-.93,8.561,8.561,0,0,1,4.11.84,5.64,5.64,0,0,1,2.31,2.28,9.054,9.054,0,0,1,.99,3.33,36.165,36.165,0,0,1,.21,3.99v17.1h3.66Zm33.24,0-15.9-17.22,14.7-13.08h-4.92l-14.34,13.14,15.66,17.16h4.8Zm-20.82,0V1586h-3.66v43.38h3.66Z" transform="translate(0 -1328)"/>
  </g>
</svg>
