<svg xmlns="http://www.w3.org/2000/svg" width="600" height="1200" viewBox="0 0 600 1200">
  <defs>
    <style>
      .cls-1 {
        fill: #fff;
        fill-rule: evenodd;
      }
    </style>
  </defs>
  <g id="International_Engage_Banner_300x600_Frame_1" data-name="International Engage Banner 300x600 Frame 1">
    <path id="Why_can_t_your_bank_greet_you_copy" data-name="Why can’t your bank greet you  copy" class="cls-1" d="M70.52,1663.08q0,1.38-.03,2.79t-0.03,2.79a11.042,11.042,0,0,0-10.44-6.12,11.874,11.874,0,0,0-9.84,4.71,14.9,14.9,0,0,0-2.43,4.92,20.661,20.661,0,0,0-.81,5.79,21.75,21.75,0,0,0,.78,5.94,13.554,13.554,0,0,0,2.43,4.83,11.708,11.708,0,0,0,4.14,3.27,13.488,13.488,0,0,0,5.91,1.2,11.838,11.838,0,0,0,5.88-1.38,12.047,12.047,0,0,0,4.26-4.26q0,2.82-.18,5.55a14.459,14.459,0,0,1-1.11,4.86,7.8,7.8,0,0,1-2.94,3.45,10.3,10.3,0,0,1-5.67,1.32,14.235,14.235,0,0,1-2.97-.3,7.417,7.417,0,0,1-2.52-1.02,5.342,5.342,0,0,1-1.77-1.89,5.847,5.847,0,0,1-.66-2.91H48.8a8.066,8.066,0,0,0,1.05,4.29,7.831,7.831,0,0,0,2.73,2.7,12.016,12.016,0,0,0,3.81,1.41,22.425,22.425,0,0,0,4.35.42q5.22,0,7.98-1.95a10.7,10.7,0,0,0,3.93-5.04,21.541,21.541,0,0,0,1.29-6.99q0.12-3.9.12-7.86v-13.11q0-1.11.03-2.25t0.09-2.37q0.059-1.23.12-2.79H70.52Zm-0.57,19.23a13.126,13.126,0,0,1-1.65,4.14,8.71,8.71,0,0,1-3.03,2.94,9.014,9.014,0,0,1-12.06-2.73,12.193,12.193,0,0,1-1.71-3.96,19.224,19.224,0,0,1-.54-4.56,21.082,21.082,0,0,1,.51-4.62,12.355,12.355,0,0,1,1.68-4.08,9.164,9.164,0,0,1,3.03-2.91,8.752,8.752,0,0,1,4.56-1.11,8.287,8.287,0,0,1,4.29,1.08,9.386,9.386,0,0,1,3.03,2.85,13.241,13.241,0,0,1,1.8,3.96,16.429,16.429,0,0,1,.6,4.35A21.545,21.545,0,0,1,69.95,1682.31Zm27.75-15.63v-3.66q-0.42-.06-0.84-0.09t-0.84-.03a11.8,11.8,0,0,0-5.34,1.14,10.145,10.145,0,0,0-3.96,3.78l-0.24-4.74h-3.6q0.059,2.22.12,4.44t0.06,4.44v21.42h3.66v-17.16a18.107,18.107,0,0,1,.42-4.05,7.711,7.711,0,0,1,1.41-3.09,6.466,6.466,0,0,1,2.61-1.95,10.46,10.46,0,0,1,4.08-.69,11.943,11.943,0,0,1,2.46.24h0Zm28.32,12.12a32.873,32.873,0,0,0-.54-5.99,15,15,0,0,0-1.95-5.21,10.638,10.638,0,0,0-3.78-3.67,11.622,11.622,0,0,0-5.97-1.39,13.682,13.682,0,0,0-6.18,1.29,12.274,12.274,0,0,0-4.29,3.52,14.842,14.842,0,0,0-2.52,5.17,23.24,23.24,0,0,0-.81,6.19,22.162,22.162,0,0,0,.78,5.98,13.776,13.776,0,0,0,2.4,4.87,11.394,11.394,0,0,0,4.14,3.28,13.841,13.841,0,0,0,6,1.2,12.95,12.95,0,0,0,8.37-2.58,12.363,12.363,0,0,0,4.17-7.68h-3.48a9.585,9.585,0,0,1-2.79,5.49,8.085,8.085,0,0,1-5.79,2.07,9.138,9.138,0,0,1-7.56-3.63,11.57,11.57,0,0,1-1.89-3.78,15.466,15.466,0,0,1-.63-4.41v-0.72h22.32Zm-3.72-2.7H103.82a16.179,16.179,0,0,1,.87-3.99,11.287,11.287,0,0,1,1.89-3.42,9.2,9.2,0,0,1,2.94-2.37,9.4,9.4,0,0,1,7.83-.09,7.605,7.605,0,0,1,2.73,2.22,10.345,10.345,0,0,1,1.65,3.24,12.737,12.737,0,0,1,.57,3.81v0.6Zm34.14,2.7a32.873,32.873,0,0,0-.54-5.99,15,15,0,0,0-1.95-5.21,10.638,10.638,0,0,0-3.78-3.67,11.622,11.622,0,0,0-5.97-1.39,13.682,13.682,0,0,0-6.18,1.29,12.274,12.274,0,0,0-4.29,3.52,14.842,14.842,0,0,0-2.52,5.17,23.24,23.24,0,0,0-.81,6.19,22.162,22.162,0,0,0,.78,5.98,13.776,13.776,0,0,0,2.4,4.87,11.394,11.394,0,0,0,4.14,3.28,13.841,13.841,0,0,0,6,1.2,12.95,12.95,0,0,0,8.37-2.58,12.363,12.363,0,0,0,4.17-7.68h-3.48a9.585,9.585,0,0,1-2.79,5.49,8.085,8.085,0,0,1-5.79,2.07,9.138,9.138,0,0,1-7.56-3.63,11.57,11.57,0,0,1-1.89-3.78,15.466,15.466,0,0,1-.63-4.41v-0.72h22.32Zm-3.72-2.7H134.24a16.179,16.179,0,0,1,.87-3.99,11.287,11.287,0,0,1,1.89-3.42,9.2,9.2,0,0,1,2.94-2.37,9.4,9.4,0,0,1,7.83-.09,7.605,7.605,0,0,1,2.73,2.22,10.345,10.345,0,0,1,1.65,3.24,12.737,12.737,0,0,1,.57,3.81v0.6Zm22.92,17.22v-3.12q-0.72.12-1.47,0.24a8.353,8.353,0,0,1-1.29.12,6.983,6.983,0,0,1-2.28-.3,2.6,2.6,0,0,1-1.29-.93,3.422,3.422,0,0,1-.57-1.59,17.911,17.911,0,0,1-.12-2.22v-19.74h6.78v-2.7h-6.78v-7.86l-3.66,1.62v6.24h-6v2.7h6v21.36q0,6.48,6.42,6.48,1.08,0,2.13-.09t2.13-.21h0Zm44.94-30.24h-3.66l-10.08,25.38-10.14-25.38h-4.38l12.72,30.12-4.8,11.58h3.72Zm29.22,8.79a14.249,14.249,0,0,0-2.67-4.95,12.02,12.02,0,0,0-4.44-3.27,15.2,15.2,0,0,0-6.15-1.17,14.657,14.657,0,0,0-6.12,1.2,12.649,12.649,0,0,0-4.44,3.3,14.394,14.394,0,0,0-2.73,4.92,19.4,19.4,0,0,0-.93,6.12,21.117,21.117,0,0,0,.9,6.27,14.8,14.8,0,0,0,2.67,5.07,12.589,12.589,0,0,0,4.44,3.42,14.4,14.4,0,0,0,6.21,1.26,13.638,13.638,0,0,0,6.06-1.29,12.964,12.964,0,0,0,4.44-3.51,15.611,15.611,0,0,0,2.73-5.13,19.883,19.883,0,0,0,.93-6.09A20.319,20.319,0,0,0,249.8,1671.87Zm-3.6,10.82a14.046,14.046,0,0,1-1.83,4.25,9.673,9.673,0,0,1-3.18,3.05,8.871,8.871,0,0,1-4.65,1.17,8.99,8.99,0,0,1-4.71-1.17,10.079,10.079,0,0,1-3.21-3.02,12.754,12.754,0,0,1-1.83-4.22,20.2,20.2,0,0,1-.57-4.76,18.128,18.128,0,0,1,.6-4.7,12.027,12.027,0,0,1,1.86-3.98,9.385,9.385,0,0,1,3.21-2.78,10.821,10.821,0,0,1,9.3,0,9.394,9.394,0,0,1,3.21,2.78,11.522,11.522,0,0,1,1.83,4.01A19.054,19.054,0,0,1,246.2,1682.69Zm35.34,10.69q-0.18-4.5-.18-9.06v-21.24H277.7v15.84a20.853,20.853,0,0,1-.45,4.38,10.661,10.661,0,0,1-1.53,3.72,8.22,8.22,0,0,1-2.82,2.61,8.633,8.633,0,0,1-4.32.99,7.938,7.938,0,0,1-3.9-.84,6.323,6.323,0,0,1-2.37-2.28,9.144,9.144,0,0,1-1.17-3.33,25.327,25.327,0,0,1-.3-3.99v-17.1h-3.66v18.54a21.686,21.686,0,0,0,.54,5.1,9.491,9.491,0,0,0,1.8,3.78,7.858,7.858,0,0,0,3.33,2.37,14.155,14.155,0,0,0,5.13.81,11.764,11.764,0,0,0,5.64-1.23,12.662,12.662,0,0,0,4.2-3.93l0.12,4.86h3.6Z" transform="translate(0 -1328)"/>
  </g>
</svg>
