<svg xmlns="http://www.w3.org/2000/svg" width="300" height="600" viewBox="0 0 300 600">
  <defs>
    <style>
      .cls-1 {
        fill: #fff;
        fill-rule: evenodd;
      }
    </style>
  </defs>
  <g id="International_Engage_Banner_300x600_Frame_1" data-name="International Engage Banner 300x600 Frame 1">
    <path id="upon_arrival_copy" data-name="upon arrival? copy" class="cls-1" d="M74.25,1053.69h2.58c-0.06-2.61-.06-5.22-0.06-7.8v-7.35H74.13v8.01c0,2.76-.99,5.31-4.17,5.31-3.21,0-3.51-2.28-3.51-4.92v-8.4H63.81v9.42c0,3.75,1.44,5.91,5.43,5.91a5.534,5.534,0,0,0,4.89-2.58Zm21.24-7.8c0-3.99-1.95-7.62-6.39-7.62a5.478,5.478,0,0,0-5.13,2.88l-0.09-2.61H81.27c0.09,1.44.09,2.91,0.09,4.32v16.53H84v-7.98a5.375,5.375,0,0,0,4.77,2.55C93.329,1053.96,95.489,1049.97,95.489,1045.89Zm-2.76.18c0,2.91-1.11,6.03-4.53,6.03-3.27,0-4.23-3.21-4.23-5.94,0-2.88,1.17-6.03,4.53-6.03C91.74,1040.13,92.729,1043.37,92.729,1046.07Zm20.07-.03c0-4.62-2.61-7.83-7.409-7.83-4.71,0-7.5,3.27-7.5,7.83,0,4.59,2.64,7.98,7.47,7.98C110.069,1054.02,112.8,1050.51,112.8,1046.04Zm-2.76,0c0,2.88-1.32,6.18-4.679,6.18-3.42,0-4.68-3.24-4.68-6.18,0-2.97,1.29-5.94,4.68-5.94S110.039,1043.07,110.039,1046.04Zm16.59,7.65h2.64v-9.42c0-3.72-1.44-5.91-5.4-5.91a5.626,5.626,0,0,0-4.95,2.61l-0.09-2.43h-2.61c0.03,0.87.09,2.61,0.09,3.9v11.25h2.64v-7.56c0-2.79.9-5.76,4.17-5.76,3.209,0,3.509,2.28,3.509,4.92v8.4Zm25.17,0h2.31a18.349,18.349,0,0,1-.48-4.44v-5.58c0-3.96-1.889-5.43-5.759-5.43-2.85,0-5.52,1.08-5.67,4.38h2.58c0.18-1.98,1.29-2.67,3.15-2.67,2.49,0,3.33,1.32,3.33,3.66v0.9c-0.42-.03-0.96-0.06-1.5-0.06-3.69,0-8.67.54-8.67,5.07,0,3.09,2.49,4.5,5.31,4.5a5.642,5.642,0,0,0,5.13-2.46A17.417,17.417,0,0,0,151.8,1053.69Zm-0.539-7.59c0,3.06-.39,6.15-4.2,6.15-1.74,0-3.33-.99-3.33-2.85,0-3.09,3.84-3.36,6.18-3.36A11.868,11.868,0,0,1,151.26,1046.1Zm15.18-5.1v-2.49a7.375,7.375,0,0,0-.84-0.06,4.932,4.932,0,0,0-4.62,2.52l-0.12-2.43h-2.58c0.06,1.47.09,2.97,0.09,4.44v10.71h2.64v-8.16c0-2.88,1.02-4.65,4.14-4.65A8.959,8.959,0,0,1,166.44,1041Zm10.59,0v-2.49a7.375,7.375,0,0,0-.84-0.06,4.932,4.932,0,0,0-4.62,2.52l-0.12-2.43h-2.58c0.06,1.47.09,2.97,0.09,4.44v10.71h2.64v-8.16c0-2.88,1.02-4.65,4.14-4.65A8.959,8.959,0,0,1,177.03,1041Zm2.37-6.33h2.94V1032H179.4v2.67Zm0.15,19.02h2.64v-15.15h-2.64v15.15Zm14.1,0,6.3-15.15h-2.7l-4.8,12.6-4.71-12.6h-3l6.15,15.15h2.76Zm17.88,0h2.309a18.349,18.349,0,0,1-.48-4.44v-5.58c0-3.96-1.889-5.43-5.759-5.43-2.85,0-5.52,1.08-5.67,4.38h2.58c0.18-1.98,1.29-2.67,3.15-2.67,2.49,0,3.33,1.32,3.33,3.66v0.9c-0.42-.03-0.96-0.06-1.5-0.06-3.69,0-8.67.54-8.67,5.07,0,3.09,2.49,4.5,5.31,4.5a5.642,5.642,0,0,0,5.13-2.46A17.226,17.226,0,0,0,211.53,1053.69Zm-0.54-7.59c0,3.06-.39,6.15-4.2,6.15-1.74,0-3.33-.99-3.33-2.85,0-3.09,3.84-3.36,6.18-3.36A11.868,11.868,0,0,1,210.99,1046.1Zm7.11,7.59h2.64V1032H218.1v21.69Zm18-16.56c0-4.14-3.359-5.49-6.959-5.49a19.529,19.529,0,0,0-3.45.36v2.19a11.257,11.257,0,0,1,3.12-.48c2.31,0,4.47.93,4.47,3.54,0,2.07-1.41,3.18-2.91,4.53-2.01,1.83-2.43,2.31-2.43,4.41v2.16h2.31v-2.16c0-.93.18-1.32,1.23-2.28C234.06,1041.57,236.1,1039.83,236.1,1037.13Zm-8.519,16.56h3.03v-3.03h-3.03v3.03Z" transform="translate(0 -664)"/>
  </g>
</svg>
