<?xml version="1.0" encoding="UTF-8"?><svg id="Layer_1" xmlns="http://www.w3.org/2000/svg" viewBox="0 0 300 600"><defs><style>.cls-1{fill:none;}.cls-2{fill:#fff;}</style></defs><g><path class="cls-2" d="M22.91,454.69h-.74v-5.19h-1.84v-.59h4.43v.59h-1.85v5.19Z"/><path class="cls-2" d="M25.11,452.88c0,.74,.4,1.42,1.22,1.42,.58,0,.95-.35,1.04-.92h.67c-.16,.95-.85,1.39-1.77,1.39-1.26,0-1.86-.84-1.86-2.04s.61-2.16,1.92-2.16,1.73,1.05,1.73,2.22h-2.95v.08Zm1.19-1.82c-.74,0-1.11,.61-1.18,1.28h2.24c0-.66-.33-1.28-1.06-1.28Z"/><path class="cls-2" d="M30.88,451.27c-.83,0-1.1,.47-1.1,1.24v2.17h-.7v-2.85c0-.39,0-.79-.02-1.18h.69l.03,.65c.29-.47,.68-.67,1.23-.67,.07,0,.16,0,.22,.02v.66c-.1-.02-.23-.03-.34-.03Z"/><path class="cls-2" d="M37.34,452.31c0-.66-.18-1.17-.93-1.17-.8,0-1.05,.58-1.05,1.31v2.24h-.7v-2.34c0-.66-.14-1.21-.92-1.21s-1.06,.64-1.06,1.31v2.24h-.7v-2.66c0-.46,0-.92-.02-1.38h.7l.02,.67c.29-.48,.72-.72,1.28-.72,.63,0,1.05,.24,1.29,.83,.29-.57,.76-.83,1.4-.83,1.13,0,1.4,.74,1.4,1.72v2.37h-.7v-2.38Z"/><path class="cls-2" d="M40.63,454.78c-.86,0-1.58-.34-1.58-1.31h.7c.03,.56,.35,.82,.9,.82,.42,0,.91-.21,.91-.69,0-.42-.4-.59-.87-.7l-.33-.08c-.6-.14-1.22-.39-1.22-1.11,0-.84,.82-1.15,1.54-1.15,.81,0,1.45,.34,1.48,1.22h-.7c-.02-.47-.33-.74-.8-.74-.37,0-.83,.17-.83,.6,0,.38,.38,.55,.86,.67l.32,.08c.7,.18,1.24,.44,1.24,1.13,0,.92-.85,1.26-1.64,1.26Z"/><path class="cls-2" d="M48.11,454.12c-.34,.49-.78,.66-1.37,.66-.75,0-1.42-.38-1.42-1.2,0-1.21,1.33-1.35,2.31-1.35,.14,0,.29,0,.4,.02v-.24c0-.62-.22-.98-.89-.98-.5,0-.79,.18-.84,.71h-.69c.04-.88,.75-1.17,1.51-1.17,1.03,0,1.54,.39,1.54,1.45v1.49c0,.53,.07,1,.13,1.18h-.62c-.03-.17-.06-.4-.07-.57Zm-.43-1.47c-.62,0-1.65,.07-1.65,.9,0,.5,.42,.76,.89,.76,1.02,0,1.12-.82,1.12-1.64-.17-.02-.25-.02-.36-.02Z"/><path class="cls-2" d="M52.76,452.45c0-.7-.08-1.31-.94-1.31s-1.11,.79-1.11,1.54v2.02h-.7v-3c0-.34-.02-.81-.02-1.04h.7l.02,.65c.33-.46,.74-.7,1.32-.7,1.06,0,1.44,.58,1.44,1.58v2.51h-.7v-2.24Z"/><path class="cls-2" d="M57.52,454.07c-.34,.47-.7,.69-1.29,.69-1.22,0-1.77-1.02-1.77-2.12s.55-2.07,1.74-2.07c.61,0,1.01,.21,1.32,.72v-2.38h.7v4.61c0,.38,0,.78,.02,1.18h-.69l-.04-.62Zm-1.21-3.01c-.87,0-1.12,.86-1.12,1.59,0,.78,.3,1.59,1.21,1.59s1.13-.85,1.13-1.58c0-.77-.32-1.61-1.22-1.61Z"/><path class="cls-2" d="M63.53,454.78c-1.27,0-1.96-.84-1.96-2.06s.69-2.17,2-2.17c.91,0,1.57,.46,1.65,1.42h-.69c-.04-.58-.38-.92-.96-.92-.95,0-1.26,.83-1.26,1.65,0,.77,.33,1.62,1.22,1.62,.59,0,.97-.38,1.01-.97h.69c-.07,.98-.78,1.45-1.7,1.45Z"/><path class="cls-2" d="M67.85,454.78c-1.29,0-1.99-.9-1.99-2.13s.74-2.09,2-2.09,1.97,.86,1.97,2.09-.73,2.13-1.98,2.13Zm0-3.71c-.9,0-1.25,.79-1.25,1.58s.34,1.65,1.25,1.65,1.25-.88,1.25-1.65-.34-1.58-1.25-1.58Z"/><path class="cls-2" d="M73.6,452.45c0-.7-.08-1.31-.94-1.31s-1.11,.79-1.11,1.54v2.02h-.7v-3c0-.34-.02-.81-.02-1.04h.7l.02,.65c.33-.46,.74-.7,1.32-.7,1.06,0,1.44,.58,1.44,1.58v2.51h-.7v-2.24Z"/><path class="cls-2" d="M78.36,454.07c-.34,.47-.7,.69-1.29,.69-1.22,0-1.77-1.02-1.77-2.12s.55-2.07,1.74-2.07c.61,0,1.01,.21,1.32,.72v-2.38h.7v4.61c0,.38,0,.78,.02,1.18h-.69l-.04-.62Zm-1.21-3.01c-.87,0-1.12,.86-1.12,1.59,0,.78,.3,1.59,1.21,1.59s1.13-.85,1.13-1.58c0-.77-.32-1.61-1.22-1.61Z"/><path class="cls-2" d="M80.33,448.91h.78v.71h-.78v-.71Zm.04,1.74h.7v4.04h-.7v-4.04Z"/><path class="cls-2" d="M83.63,454.73c-.65,0-.98-.26-.98-.94v-2.66h-.79v-.49h.79v-.78l.7-.3v1.08h.9v.49h-.9v2.38c0,.49,.06,.67,.55,.67,.13,0,.24-.02,.38-.04v.54c-.22,.03-.43,.05-.65,.05Z"/><path class="cls-2" d="M85.1,448.91h.78v.71h-.78v-.71Zm.04,1.74h.7v4.04h-.7v-4.04Z"/><path class="cls-2" d="M88.85,454.78c-1.29,0-1.99-.9-1.99-2.13s.74-2.09,2-2.09,1.97,.86,1.97,2.09-.73,2.13-1.98,2.13Zm0-3.71c-.9,0-1.25,.79-1.25,1.58s.34,1.65,1.25,1.65,1.25-.88,1.25-1.65-.34-1.58-1.25-1.58Z"/><path class="cls-2" d="M94.6,452.45c0-.7-.08-1.31-.94-1.31s-1.11,.79-1.11,1.54v2.02h-.7v-3c0-.34-.02-.81-.02-1.04h.7l.02,.65c.33-.46,.74-.7,1.32-.7,1.06,0,1.44,.58,1.44,1.58v2.51h-.7v-2.24Z"/><path class="cls-2" d="M97.89,454.78c-.86,0-1.58-.34-1.58-1.31h.7c.03,.56,.35,.82,.9,.82,.42,0,.91-.21,.91-.69,0-.42-.4-.59-.87-.7l-.33-.08c-.6-.14-1.22-.39-1.22-1.11,0-.84,.82-1.15,1.54-1.15,.81,0,1.45,.34,1.48,1.22h-.7c-.02-.47-.33-.74-.8-.74-.37,0-.83,.17-.83,.6,0,.38,.38,.55,.86,.67l.32,.08c.7,.18,1.24,.44,1.24,1.13,0,.92-.85,1.26-1.64,1.26Z"/><path class="cls-2" d="M105.37,454.12c-.34,.49-.78,.66-1.37,.66-.75,0-1.42-.38-1.42-1.2,0-1.21,1.33-1.35,2.31-1.35,.14,0,.29,0,.4,.02v-.24c0-.62-.22-.98-.89-.98-.5,0-.79,.18-.84,.71h-.69c.04-.88,.75-1.17,1.51-1.17,1.03,0,1.54,.39,1.54,1.45v1.49c0,.53,.07,1,.13,1.18h-.62c-.03-.17-.06-.4-.07-.57Zm-.43-1.47c-.62,0-1.65,.07-1.65,.9,0,.5,.42,.76,.89,.76,1.02,0,1.12-.82,1.12-1.64-.17-.02-.25-.02-.36-.02Z"/><path class="cls-2" d="M109.25,454.76c-.58,0-.94-.22-1.27-.68v2.13h-.7v-4.41c0-.38,0-.77-.02-1.15h.7l.02,.7c.31-.53,.75-.77,1.37-.77,1.18,0,1.7,.97,1.7,2.03s-.58,2.15-1.79,2.15Zm-.07-3.69c-.9,0-1.21,.84-1.21,1.61,0,.73,.26,1.58,1.13,1.58s1.21-.83,1.21-1.61c0-.72-.26-1.58-1.13-1.58Z"/><path class="cls-2" d="M114.04,454.76c-.58,0-.94-.22-1.27-.68v2.13h-.7v-4.41c0-.38,0-.77-.02-1.15h.7l.02,.7c.31-.53,.75-.77,1.37-.77,1.18,0,1.7,.97,1.7,2.03s-.58,2.15-1.79,2.15Zm-.07-3.69c-.9,0-1.21,.84-1.21,1.61,0,.73,.26,1.58,1.13,1.58s1.21-.83,1.21-1.61c0-.72-.26-1.58-1.13-1.58Z"/><path class="cls-2" d="M116.85,448.91h.7v5.78h-.7v-5.78Z"/><path class="cls-2" d="M119.37,456.21l.66-1.53-1.72-4.03h.8l1.27,3.3,1.26-3.3h.71l-2.29,5.56h-.7Z"/><path class="cls-2" d="M122.81,453.9h.81v.79h-.81v-.79Z"/></g><rect class="cls-1" width="300" height="600"/></svg>